<svg width="2100" height="500" viewBox="0 0 2100 500" fill="none" xmlns="http://www.w3.org/2000/svg">
<rect x="1600" width="100" height="100" fill="#E8581A"/>
<rect x="1800" width="100" height="100" fill="#E8581A"/>
<rect x="2000" width="100" height="100" fill="#E8581A"/>
<rect x="1500" y="100" width="100" height="100" fill="#E8581A"/>
<rect x="1700" y="100" width="100" height="100" fill="#E8581A"/>
<rect x="1900" y="100" width="100" height="100" fill="#E8581A"/>
<rect x="1600" y="200" width="100" height="100" fill="#E8581A"/>
<rect x="1800" y="200" width="100" height="100" fill="#E8581A"/>
<rect x="2000" y="200" width="100" height="100" fill="#E8581A"/>
<rect x="1500" y="300" width="100" height="100" fill="#E8581A"/>
<rect x="1700" y="300" width="100" height="100" fill="#E8581A"/>
<rect x="1900" y="300" width="100" height="100" fill="#E8581A"/>
<rect x="1600" y="400" width="100" height="100" fill="#E8581A"/>
<rect x="1800" y="400" width="100" height="100" fill="#E8581A"/>
<rect x="2000" y="400" width="100" height="100" fill="#E8581A"/>
<rect x="800" width="100" height="100" fill="#E8581A"/>
<rect x="700" y="100" width="100" height="100" fill="#E8581A"/>
<rect x="800" y="200" width="100" height="100" fill="#E8581A"/>
<rect x="700" y="300" width="100" height="100" fill="#E8581A"/>
<rect x="800" y="400" width="100" height="100" fill="#E8581A"/>
<rect x="1400" width="100" height="100" fill="#E8581A"/>
<rect x="1300" y="100" width="100" height="100" fill="#E8581A"/>
<rect x="1400" y="200" width="100" height="100" fill="#E8581A"/>
<rect x="1300" y="300" width="100" height="100" fill="#E8581A"/>
<rect x="1400" y="400" width="100" height="100" fill="#E8581A"/>
<rect x="600" width="100" height="100" fill="#E8581A"/>
<rect x="500" y="100" width="100" height="100" fill="#E8581A"/>
<rect x="600" y="200" width="100" height="100" fill="#E8581A"/>
<rect x="500" y="300" width="100" height="100" fill="#E8581A"/>
<rect x="600" y="400" width="100" height="100" fill="#E8581A"/>
<rect x="1200" width="100" height="100" fill="#E8581A"/>
<rect x="1100" y="100" width="100" height="100" fill="#E8581A"/>
<rect x="1200" y="200" width="100" height="100" fill="#E8581A"/>
<rect x="1100" y="300" width="100" height="100" fill="#E8581A"/>
<rect x="1200" y="400" width="100" height="100" fill="#E8581A"/>
<rect x="400" width="100" height="100" fill="#E8581A"/>
<rect x="300" y="100" width="100" height="100" fill="#E8581A"/>
<rect x="400" y="200" width="100" height="100" fill="#E8581A"/>
<rect x="300" y="300" width="100" height="100" fill="#E8581A"/>
<rect x="400" y="400" width="100" height="100" fill="#E8581A"/>
<rect x="1000" width="100" height="100" fill="#E8581A"/>
<rect x="900" y="100" width="100" height="100" fill="#E8581A"/>
<rect x="1000" y="200" width="100" height="100" fill="#E8581A"/>
<rect x="900" y="300" width="100" height="100" fill="#E8581A"/>
<rect x="1000" y="400" width="100" height="100" fill="#E8581A"/>
<rect x="200" width="100" height="100" fill="#E8581A"/>
<rect x="100" y="100" width="100" height="100" fill="#E8581A"/>
<rect y="200" width="100" height="100" fill="#E8581A"/>
<rect y="400" width="100" height="100" fill="#E8581A"/>
<rect width="100" height="100" fill="#E8581A"/>
<rect x="200" y="200" width="100" height="100" fill="#E8581A"/>
<rect x="100" y="300" width="100" height="100" fill="#E8581A"/>
<rect x="200" y="400" width="100" height="100" fill="#E8581A"/>
<rect x="1600" y="100" width="100" height="100" fill="#53B9AE"/>
<rect x="1800" y="100" width="100" height="100" fill="#53B9AE"/>
<rect x="2000" y="100" width="100" height="100" fill="#53B9AE"/>
<rect x="1500" width="100" height="100" fill="#53B9AE"/>
<rect x="1700" width="100" height="100" fill="#53B9AE"/>
<rect x="1900" width="100" height="100" fill="#53B9AE"/>
<rect x="1600" y="300" width="100" height="100" fill="#53B9AE"/>
<rect x="1800" y="300" width="100" height="100" fill="#53B9AE"/>
<rect x="2000" y="300" width="100" height="100" fill="#53B9AE"/>
<rect x="1400" y="100" width="100" height="100" fill="#53B9AE"/>
<rect x="1500" y="200" width="100" height="100" fill="#53B9AE"/>
<rect x="1700" y="200" width="100" height="100" fill="#53B9AE"/>
<rect x="1900" y="200" width="100" height="100" fill="#53B9AE"/>
<rect x="1400" y="300" width="100" height="100" fill="#53B9AE"/>
<rect x="1500" y="400" width="100" height="100" fill="#53B9AE"/>
<rect x="1700" y="400" width="100" height="100" fill="#53B9AE"/>
<rect x="1900" y="400" width="100" height="100" fill="#53B9AE"/>
<rect x="700" width="100" height="100" fill="#53B9AE"/>
<rect x="600" y="100" width="100" height="100" fill="#53B9AE"/>
<rect x="700" y="200" width="100" height="100" fill="#53B9AE"/>
<rect x="600" y="300" width="100" height="100" fill="#53B9AE"/>
<rect x="700" y="400" width="100" height="100" fill="#53B9AE"/>
<rect x="1300" width="100" height="100" fill="#53B9AE"/>
<rect x="1200" y="100" width="100" height="100" fill="#53B9AE"/>
<rect x="1300" y="200" width="100" height="100" fill="#53B9AE"/>
<rect x="1200" y="300" width="100" height="100" fill="#53B9AE"/>
<rect x="1300" y="400" width="100" height="100" fill="#53B9AE"/>
<rect x="500" width="100" height="100" fill="#53B9AE"/>
<rect x="400" y="100" width="100" height="100" fill="#53B9AE"/>
<rect x="500" y="200" width="100" height="100" fill="#53B9AE"/>
<rect x="400" y="300" width="100" height="100" fill="#53B9AE"/>
<rect x="500" y="400" width="100" height="100" fill="#53B9AE"/>
<rect x="1100" width="100" height="100" fill="#53B9AE"/>
<rect x="1000" y="100" width="100" height="100" fill="#53B9AE"/>
<rect x="1100" y="200" width="100" height="100" fill="#53B9AE"/>
<rect x="1000" y="300" width="100" height="100" fill="#53B9AE"/>
<rect x="1100" y="400" width="100" height="100" fill="#53B9AE"/>
<rect x="300" width="100" height="100" fill="#53B9AE"/>
<rect x="200" y="100" width="100" height="100" fill="#53B9AE"/>
<rect x="300" y="200" width="100" height="100" fill="#53B9AE"/>
<rect x="200" y="300" width="100" height="100" fill="#53B9AE"/>
<rect x="300" y="400" width="100" height="100" fill="#53B9AE"/>
<rect x="900" width="100" height="100" fill="#53B9AE"/>
<rect x="800" y="100" width="100" height="100" fill="#53B9AE"/>
<rect x="900" y="200" width="100" height="100" fill="#53B9AE"/>
<rect x="800" y="300" width="100" height="100" fill="#53B9AE"/>
<rect x="900" y="400" width="100" height="100" fill="#53B9AE"/>
<rect x="100" width="100" height="100" fill="#53B9AE"/>
<rect y="100" width="100" height="100" fill="#53B9AE"/>
<rect x="100" y="200" width="100" height="100" fill="#53B9AE"/>
<rect y="300" width="100" height="100" fill="#53B9AE"/>
<rect x="100" y="400" width="100" height="100" fill="#53B9AE"/>
</svg>
