<svg width="2100" height="600" viewBox="0 0 2100 600" fill="none" xmlns="http://www.w3.org/2000/svg">
<path d="M1600 0H1700V100H1600V0Z" fill="#E8581A"/>
<path d="M1800 0H1900V100H1800V0Z" fill="#E8581A"/>
<path d="M2000 0H2100V100H2000V0Z" fill="#E8581A"/>
<path d="M1500 100H1600V200H1500V100Z" fill="#E8581A"/>
<path d="M1700 100H1800V200H1700V100Z" fill="#E8581A"/>
<path d="M1900 100H2000V200H1900V100Z" fill="#E8581A"/>
<path d="M1600 200H1700V300H1600V200Z" fill="#E8581A"/>
<path d="M1800 200H1900V300H1800V200Z" fill="#E8581A"/>
<path d="M2000 200H2100V300H2000V200Z" fill="#E8581A"/>
<path d="M1500 300H1600V400H1500V300Z" fill="#E8581A"/>
<path d="M1700 300H1800V400H1700V300Z" fill="#E8581A"/>
<path d="M1900 300H2000V400H1900V300Z" fill="#E8581A"/>
<path d="M1600 400H1700V500H1600V400Z" fill="#E8581A"/>
<path d="M1500 500H1600V600H1500V500Z" fill="#E8581A"/>
<path d="M1800 400H1900V500H1800V400Z" fill="#E8581A"/>
<path d="M1700 500H1800V600H1700V500Z" fill="#E8581A"/>
<path d="M2000 400H2100V500H2000V400Z" fill="#E8581A"/>
<path d="M1900 500H2000V600H1900V500Z" fill="#E8581A"/>
<path d="M800 0H900V100H800V0Z" fill="#E8581A"/>
<path d="M700 100H800V200H700V100Z" fill="#E8581A"/>
<path d="M800 200H900V300H800V200Z" fill="#E8581A"/>
<path d="M700 300H800V400H700V300Z" fill="#E8581A"/>
<path d="M800 400H900V500H800V400Z" fill="#E8581A"/>
<path d="M700 500H800V600H700V500Z" fill="#E8581A"/>
<path d="M1400 0H1500V100H1400V0Z" fill="#E8581A"/>
<path d="M1300 100H1400V200H1300V100Z" fill="#E8581A"/>
<path d="M1400 200H1500V300H1400V200Z" fill="#E8581A"/>
<path d="M1300 300H1400V400H1300V300Z" fill="#E8581A"/>
<path d="M1400 400H1500V500H1400V400Z" fill="#E8581A"/>
<path d="M1300 500H1400V600H1300V500Z" fill="#E8581A"/>
<path d="M600 0H700V100H600V0Z" fill="#E8581A"/>
<path d="M500 100H600V200H500V100Z" fill="#E8581A"/>
<path d="M600 200H700V300H600V200Z" fill="#E8581A"/>
<path d="M500 300H600V400H500V300Z" fill="#E8581A"/>
<path d="M600 400H700V500H600V400Z" fill="#E8581A"/>
<path d="M500 500H600V600H500V500Z" fill="#E8581A"/>
<path d="M1200 0H1300V100H1200V0Z" fill="#E8581A"/>
<path d="M1100 100H1200V200H1100V100Z" fill="#E8581A"/>
<path d="M1200 200H1300V300H1200V200Z" fill="#E8581A"/>
<path d="M1100 300H1200V400H1100V300Z" fill="#E8581A"/>
<path d="M1200 400H1300V500H1200V400Z" fill="#E8581A"/>
<path d="M1100 500H1200V600H1100V500Z" fill="#E8581A"/>
<path d="M400 0H500V100H400V0Z" fill="#E8581A"/>
<path d="M300 100H400V200H300V100Z" fill="#E8581A"/>
<path d="M400 200H500V300H400V200Z" fill="#E8581A"/>
<path d="M300 300H400V400H300V300Z" fill="#E8581A"/>
<path d="M400 400H500V500H400V400Z" fill="#E8581A"/>
<path d="M300 500H400V600H300V500Z" fill="#E8581A"/>
<path d="M1000 0H1100V100H1000V0Z" fill="#E8581A"/>
<path d="M900 100H1000V200H900V100Z" fill="#E8581A"/>
<path d="M1000 200H1100V300H1000V200Z" fill="#E8581A"/>
<path d="M900 300H1000V400H900V300Z" fill="#E8581A"/>
<path d="M1000 400H1100V500H1000V400Z" fill="#E8581A"/>
<path d="M900 500H1000V600H900V500Z" fill="#E8581A"/>
<path d="M200 0H300V100H200V0Z" fill="#E8581A"/>
<path d="M100 100H200V200H100V100Z" fill="#E8581A"/>
<path d="M0 200H100V300H0V200Z" fill="#E8581A"/>
<path d="M0 400H100V500H0V400Z" fill="#E8581A"/>
<path d="M0 0H100V100H0V0Z" fill="#E8581A"/>
<path d="M200 200H300V300H200V200Z" fill="#E8581A"/>
<path d="M100 300H200V400H100V300Z" fill="#E8581A"/>
<path d="M200 400H300V500H200V400Z" fill="#E8581A"/>
<path d="M100 500H200V600H100V500Z" fill="#E8581A"/>
<path d="M1600 100H1700V200H1600V100Z" fill="#F6E6D8"/>
<path d="M1800 100H1900V200H1800V100Z" fill="#F6E6D8"/>
<path d="M2000 100H2100V200H2000V100Z" fill="#F6E6D8"/>
<path d="M1500 0H1600V100H1500V0Z" fill="#F6E6D8"/>
<path d="M1700 0H1800V100H1700V0Z" fill="#F6E6D8"/>
<path d="M1900 0H2000V100H1900V0Z" fill="#F6E6D8"/>
<path d="M1600 300H1700V400H1600V300Z" fill="#F6E6D8"/>
<path d="M1800 300H1900V400H1800V300Z" fill="#F6E6D8"/>
<path d="M2000 300H2100V400H2000V300Z" fill="#F6E6D8"/>
<path d="M1400 100H1500V200H1400V100Z" fill="#F6E6D8"/>
<path d="M1500 200H1600V300H1500V200Z" fill="#F6E6D8"/>
<path d="M1700 200H1800V300H1700V200Z" fill="#F6E6D8"/>
<path d="M1900 200H2000V300H1900V200Z" fill="#F6E6D8"/>
<path d="M1400 300H1500V400H1400V300Z" fill="#F6E6D8"/>
<path d="M1500 400H1600V500H1500V400Z" fill="#F6E6D8"/>
<path d="M1400 500H1500V600H1400V500Z" fill="#F6E6D8"/>
<path d="M1700 400H1800V500H1700V400Z" fill="#F6E6D8"/>
<path d="M1600 500H1700V600H1600V500Z" fill="#F6E6D8"/>
<path d="M1900 400H2000V500H1900V400Z" fill="#F6E6D8"/>
<path d="M2000 500H2100V600H2000V500Z" fill="#F6E6D8"/>
<path d="M1800 500H1900V600H1800V500Z" fill="#F6E6D8"/>
<path d="M700 0H800V100H700V0Z" fill="#F6E6D8"/>
<path d="M600 100H700V200H600V100Z" fill="#F6E6D8"/>
<path d="M700 200H800V300H700V200Z" fill="#F6E6D8"/>
<path d="M600 300H700V400H600V300Z" fill="#F6E6D8"/>
<path d="M700 400H800V500H700V400Z" fill="#F6E6D8"/>
<path d="M600 500H700V600H600V500Z" fill="#F6E6D8"/>
<path d="M1300 0H1400V100H1300V0Z" fill="#F6E6D8"/>
<path d="M1200 100H1300V200H1200V100Z" fill="#F6E6D8"/>
<path d="M1300 200H1400V300H1300V200Z" fill="#F6E6D8"/>
<path d="M1200 300H1300V400H1200V300Z" fill="#F6E6D8"/>
<path d="M1300 400H1400V500H1300V400Z" fill="#F6E6D8"/>
<path d="M1200 500H1300V600H1200V500Z" fill="#F6E6D8"/>
<path d="M500 0H600V100H500V0Z" fill="#F6E6D8"/>
<path d="M400 100H500V200H400V100Z" fill="#F6E6D8"/>
<path d="M500 200H600V300H500V200Z" fill="#F6E6D8"/>
<path d="M400 300H500V400H400V300Z" fill="#F6E6D8"/>
<path d="M500 400H600V500H500V400Z" fill="#F6E6D8"/>
<path d="M400 500H500V600H400V500Z" fill="#F6E6D8"/>
<path d="M1100 0H1200V100H1100V0Z" fill="#F6E6D8"/>
<path d="M1000 100H1100V200H1000V100Z" fill="#F6E6D8"/>
<path d="M1100 200H1200V300H1100V200Z" fill="#F6E6D8"/>
<path d="M1000 300H1100V400H1000V300Z" fill="#F6E6D8"/>
<path d="M1100 400H1200V500H1100V400Z" fill="#F6E6D8"/>
<path d="M1000 500H1100V600H1000V500Z" fill="#F6E6D8"/>
<path d="M300 0H400V100H300V0Z" fill="#F6E6D8"/>
<path d="M200 100H300V200H200V100Z" fill="#F6E6D8"/>
<path d="M300 200H400V300H300V200Z" fill="#F6E6D8"/>
<path d="M200 300H300V400H200V300Z" fill="#F6E6D8"/>
<path d="M300 400H400V500H300V400Z" fill="#F6E6D8"/>
<path d="M200 500H300V600H200V500Z" fill="#F6E6D8"/>
<path d="M900 0H1000V100H900V0Z" fill="#F6E6D8"/>
<path d="M800 100H900V200H800V100Z" fill="#F6E6D8"/>
<path d="M900 200H1000V300H900V200Z" fill="#F6E6D8"/>
<path d="M800 300H900V400H800V300Z" fill="#F6E6D8"/>
<path d="M900 400H1000V500H900V400Z" fill="#F6E6D8"/>
<path d="M800 500H900V600H800V500Z" fill="#F6E6D8"/>
<path d="M100 0H200V100H100V0Z" fill="#F6E6D8"/>
<path d="M0 100H100V200H0V100Z" fill="#F6E6D8"/>
<path d="M100 200H200V300H100V200Z" fill="#F6E6D8"/>
<path d="M0 300H100V400H0V300Z" fill="#F6E6D8"/>
<path d="M100 400H200V500H100V400Z" fill="#F6E6D8"/>
<path d="M0 500H100V600H0V500Z" fill="#F6E6D8"/>
</svg>
