<svg width="237" height="237" viewBox="0 0 237 237" fill="none" xmlns="http://www.w3.org/2000/svg">
<circle cx="118.5" cy="118.5" r="102.5" fill="#53B9AE"/>
<path d="M102.229 55.2815L99.4098 53.0219C100.51 52.3251 100.952 51.2403 100.591 49.9584C100.109 48.249 98.5976 47.578 96.5649 48.1512L93.666 48.9688L95.9461 57.0534L96.5351 56.8873L95.7892 54.2425L98.0991 53.591C98.3763 53.5129 98.6239 53.4181 98.8682 53.3118L101.559 55.4704L102.229 55.2815ZM95.6426 53.7228L94.4049 49.334L96.7148 48.6825C98.4472 48.1939 99.5959 48.7303 99.99 50.1277C100.381 51.5137 99.6849 52.5827 97.9525 53.0713L95.6426 53.7228Z" fill="#53B9AE"/>
<path d="M102.229 55.2815L102.365 55.7627L103.3 55.499L102.542 54.8913L102.229 55.2815ZM99.4098 53.0219L99.1423 52.5995L98.5508 52.9741L99.0971 53.412L99.4098 53.0219ZM93.666 48.9688L93.5303 48.4876L93.0491 48.6233L93.1848 49.1045L93.666 48.9688ZM95.9461 57.0534L95.4649 57.1892L95.6006 57.6704L96.0818 57.5347L95.9461 57.0534ZM96.5351 56.8873L96.6708 57.3685L97.1521 57.2328L97.0164 56.7516L96.5351 56.8873ZM95.7892 54.2425L95.6535 53.7613L95.1723 53.897L95.308 54.3782L95.7892 54.2425ZM98.8682 53.3118L99.181 52.9218L98.9455 52.7329L98.6687 52.8533L98.8682 53.3118ZM101.559 55.4704L101.246 55.8604L101.447 56.0215L101.695 55.9516L101.559 55.4704ZM95.6426 53.7228L95.1614 53.8585L95.2971 54.3397L95.7784 54.204L95.6426 53.7228ZM94.4049 49.334L94.2691 48.8527L93.7879 48.9885L93.9236 49.4697L94.4049 49.334ZM102.542 54.8913L99.7225 52.6317L99.0971 53.412L101.916 55.6716L102.542 54.8913ZM99.6774 53.4443C100.302 53.0486 100.766 52.525 101.014 51.8917C101.262 51.2576 101.278 50.5528 101.072 49.8226L100.109 50.0941C100.265 50.6459 100.24 51.1245 100.083 51.5274C99.9247 51.9312 99.6177 52.2984 99.1423 52.5995L99.6774 53.4443ZM101.072 49.8226C100.796 48.8442 100.208 48.1204 99.3635 47.7425C98.5331 47.3708 97.5201 47.3624 96.4292 47.67L96.7006 48.6325C97.6425 48.3668 98.4012 48.4073 98.955 48.6552C99.4948 48.8968 99.9032 49.3632 100.109 50.0941L101.072 49.8226ZM96.4292 47.67L93.5303 48.4876L93.8017 49.45L96.7006 48.6325L96.4292 47.67ZM93.1848 49.1045L95.4649 57.1892L96.4273 56.9177L94.1472 48.8331L93.1848 49.1045ZM96.0818 57.5347L96.6708 57.3685L96.3994 56.4061L95.8104 56.5722L96.0818 57.5347ZM97.0164 56.7516L96.2704 54.1068L95.308 54.3782L96.0539 57.023L97.0164 56.7516ZM95.9249 54.7237L98.2348 54.0723L97.9634 53.1098L95.6535 53.7613L95.9249 54.7237ZM98.2348 54.0723C98.5396 53.9863 98.8091 53.8828 99.0677 53.7703L98.6687 52.8533C98.4386 52.9534 98.2129 53.0394 97.9634 53.1098L98.2348 54.0723ZM98.5553 53.7018L101.246 55.8604L101.872 55.0804L99.181 52.9218L98.5553 53.7018ZM101.695 55.9516L102.365 55.7627L102.093 54.8003L101.423 54.9892L101.695 55.9516ZM96.1239 53.587L94.8861 49.1983L93.9236 49.4697L95.1614 53.8585L96.1239 53.587ZM94.5406 49.8152L96.8505 49.1637L96.579 48.2013L94.2691 48.8527L94.5406 49.8152ZM96.8505 49.1637C97.6511 48.938 98.2413 48.9712 98.6499 49.1542C99.0416 49.3296 99.3435 49.6774 99.5088 50.2635L100.471 49.992C100.242 49.1806 99.7729 48.5614 99.0586 48.2415C98.3612 47.9291 97.5109 47.9385 96.579 48.2013L96.8505 49.1637ZM99.5088 50.2635C99.6722 50.8428 99.5973 51.2977 99.3543 51.6545C99.1014 52.0257 98.6158 52.3647 97.8168 52.5901L98.0882 53.5525C99.0216 53.2893 99.7503 52.8495 100.181 52.2175C100.621 51.5712 100.699 50.7986 100.471 49.992L99.5088 50.2635ZM97.8168 52.5901L95.5069 53.2415L95.7784 54.204L98.0882 53.5525L97.8168 52.5901Z" fill="#F6E6D8"/>
<path d="M106.545 53.8486L106.101 50.4334L110.54 49.8561L110.47 49.3206L106.031 49.8979L105.604 46.6136L110.566 45.9682L110.495 45.4208L104.926 46.1451L106.009 54.475L111.757 53.7274L111.686 53.1801L106.545 53.8486Z" fill="#53B9AE"/>
<path d="M106.545 53.8486L106.049 53.9131L106.114 54.4089L106.61 54.3445L106.545 53.8486ZM106.101 50.4334L106.036 49.9376L105.541 50.0021L105.605 50.4979L106.101 50.4334ZM110.54 49.8561L110.604 50.352L111.1 50.2875L111.035 49.7916L110.54 49.8561ZM110.47 49.3206L110.966 49.2562L110.901 48.7603L110.405 48.8248L110.47 49.3206ZM106.031 49.8979L105.535 49.9624L105.6 50.4582L106.096 50.3937L106.031 49.8979ZM105.604 46.6136L105.54 46.1177L105.044 46.1822L105.108 46.678L105.604 46.6136ZM110.566 45.9682L110.631 46.464L111.127 46.3995L111.062 45.9037L110.566 45.9682ZM110.495 45.4208L110.991 45.3563L110.927 44.8605L110.431 44.925L110.495 45.4208ZM104.926 46.1451L104.862 45.6493L104.366 45.7138L104.43 46.2096L104.926 46.1451ZM106.009 54.475L105.514 54.5394L105.578 55.0353L106.074 54.9708L106.009 54.475ZM111.757 53.7274L111.821 54.2233L112.317 54.1588L112.253 53.663L111.757 53.7274ZM111.686 53.1801L112.182 53.1156L112.117 52.6197L111.621 52.6842L111.686 53.1801ZM107.041 53.7841L106.597 50.3689L105.605 50.4979L106.049 53.9131L107.041 53.7841ZM106.165 50.9292L110.604 50.352L110.475 49.3603L106.036 49.9376L106.165 50.9292ZM111.035 49.7916L110.966 49.2562L109.974 49.3851L110.044 49.9206L111.035 49.7916ZM110.405 48.8248L105.967 49.4021L106.096 50.3937L110.534 49.8165L110.405 48.8248ZM106.527 49.8334L106.1 46.5491L105.108 46.678L105.535 49.9624L106.527 49.8334ZM105.669 47.1094L110.631 46.464L110.502 45.4724L105.54 46.1177L105.669 47.1094ZM111.062 45.9037L110.991 45.3563L109.999 45.4853L110.071 46.0327L111.062 45.9037ZM110.431 44.925L104.862 45.6493L104.991 46.6409L110.56 45.9166L110.431 44.925ZM104.43 46.2096L105.514 54.5394L106.505 54.4105L105.422 46.0806L104.43 46.2096ZM106.074 54.9708L111.821 54.2233L111.693 53.2316L105.945 53.9791L106.074 54.9708ZM112.253 53.663L112.182 53.1156L111.19 53.2445L111.261 53.7919L112.253 53.663ZM111.621 52.6842L106.481 53.3528L106.61 54.3445L111.75 53.6759L111.621 52.6842Z" fill="#F6E6D8"/>
<path d="M118.895 53.5185C120.983 53.5632 122.293 52.367 122.344 49.9676L122.448 45.1327L121.836 45.1196L121.733 49.9305C121.688 52.03 120.671 52.9924 118.919 52.9549C117.168 52.9173 116.181 51.9119 116.226 49.8124L116.33 45.0015L115.718 44.9884L115.614 49.8233C115.562 52.2228 116.808 53.4737 118.895 53.5185Z" fill="#53B9AE"/>
<path d="M122.448 45.1327L122.948 45.1434L122.959 44.6435L122.459 44.6328L122.448 45.1327ZM121.836 45.1196L121.847 44.6197L121.347 44.609L121.337 45.1089L121.836 45.1196ZM116.33 45.0015L116.83 45.0123L116.84 44.5124L116.34 44.5017L116.33 45.0015ZM115.718 44.9884L115.729 44.4885L115.229 44.4778L115.218 44.9777L115.718 44.9884ZM118.884 54.0184C120.026 54.0428 121.021 53.7273 121.736 53.0136C122.449 52.3024 122.817 51.2638 122.844 49.9783L121.844 49.9568C121.82 51.0708 121.507 51.83 121.03 52.3056C120.556 52.7786 119.852 53.0389 118.906 53.0186L118.884 54.0184ZM122.844 49.9783L122.948 45.1434L121.948 45.122L121.844 49.9568L122.844 49.9783ZM122.459 44.6328L121.847 44.6197L121.826 45.6194L122.438 45.6326L122.459 44.6328ZM121.337 45.1089L121.233 49.9197L122.233 49.9412L122.336 45.1303L121.337 45.1089ZM121.233 49.9197C121.212 50.8986 120.966 51.5226 120.605 51.8976C120.252 52.2655 119.713 52.4718 118.93 52.455L118.909 53.4547C119.877 53.4755 120.722 53.2193 121.327 52.5905C121.924 51.9688 122.209 51.0619 122.233 49.9412L121.233 49.9197ZM118.93 52.455C118.147 52.4382 117.613 52.2089 117.273 51.8251C116.926 51.4345 116.705 50.8006 116.726 49.8231L115.726 49.8017C115.702 50.9238 115.952 51.8424 116.525 52.4887C117.104 53.1418 117.94 53.434 118.909 53.4547L118.93 52.455ZM116.726 49.8231L116.83 45.0123L115.83 44.9908L115.726 49.8017L116.726 49.8231ZM116.34 44.5017L115.729 44.4885L115.707 45.4883L116.319 45.5014L116.34 44.5017ZM115.218 44.9777L115.114 49.8126L116.114 49.834L116.218 44.9991L115.218 44.9777ZM115.114 49.8126C115.086 51.0969 115.405 52.1501 116.083 52.8915C116.765 53.636 117.743 53.9939 118.884 54.0184L118.906 53.0186C117.96 52.9983 117.271 52.7083 116.821 52.2163C116.368 51.7212 116.09 50.9492 116.114 49.834L115.114 49.8126Z" fill="#F6E6D8"/>
<path d="M129.191 54.3844C131.238 54.7324 132.345 53.8739 132.544 52.7027C133.055 49.6979 127.636 50.2858 128.058 47.8014C128.213 46.8905 129.062 46.2679 130.671 46.5415C131.416 46.6682 132.218 47.0358 132.823 47.6257L133.131 47.1788C132.57 46.6088 131.672 46.164 130.761 46.0091C128.726 45.6631 127.652 46.5395 127.453 47.7107C126.934 50.7628 132.357 50.1513 131.935 52.6356C131.782 53.5347 130.926 54.1316 129.27 53.85C128.158 53.6609 127.181 53.0324 126.714 52.3443L126.365 52.7476C126.856 53.5127 127.961 54.1752 129.191 54.3844Z" fill="#53B9AE"/>
<path d="M132.823 47.6257L132.474 47.9839L132.899 48.3976L133.235 47.909L132.823 47.6257ZM133.131 47.1788L133.543 47.4621L133.776 47.1224L133.487 46.8283L133.131 47.1788ZM126.714 52.3443L127.128 52.0634L126.762 51.5245L126.336 52.0174L126.714 52.3443ZM126.365 52.7476L125.987 52.4206L125.743 52.7032L125.944 53.0175L126.365 52.7476ZM129.107 54.8773C130.208 55.0645 131.122 54.9384 131.808 54.5478C132.503 54.152 132.914 53.5116 133.037 52.7865L132.051 52.6189C131.976 53.0651 131.733 53.4395 131.313 53.6788C130.884 53.9232 130.221 54.0523 129.275 53.8915L129.107 54.8773ZM133.037 52.7865C133.195 51.8562 132.883 51.1658 132.343 50.6553C131.84 50.1796 131.142 49.8632 130.534 49.5985C129.885 49.3157 129.338 49.0905 128.959 48.7974C128.779 48.6583 128.667 48.524 128.604 48.3897C128.544 48.2623 128.514 48.1041 128.551 47.8852L127.566 47.7176C127.497 48.1198 127.544 48.4867 127.698 48.8144C127.849 49.1352 128.086 49.386 128.347 49.5881C128.85 49.9774 129.546 50.2589 130.135 50.5153C130.765 50.7897 131.3 51.045 131.656 51.3819C131.975 51.6839 132.149 52.0468 132.051 52.6189L133.037 52.7865ZM128.551 47.8852C128.605 47.5707 128.769 47.3237 129.058 47.1665C129.361 47.0017 129.852 46.9094 130.587 47.0344L130.754 46.0485C129.88 45.8999 129.143 45.9822 128.58 46.288C128.004 46.6014 127.667 47.1212 127.566 47.7176L128.551 47.8852ZM130.587 47.0344C131.242 47.1457 131.948 47.4712 132.474 47.9839L133.172 47.2675C132.487 46.6004 131.59 46.1906 130.754 46.0485L130.587 47.0344ZM133.235 47.909L133.543 47.4621L132.719 46.8955L132.411 47.3424L133.235 47.909ZM133.487 46.8283C132.843 46.1726 131.844 45.686 130.845 45.5162L130.677 46.502C131.501 46.642 132.298 47.045 132.774 47.5294L133.487 46.8283ZM130.845 45.5162C129.748 45.3297 128.843 45.4613 128.165 45.86C127.48 46.2632 127.082 46.9085 126.96 47.6268L127.946 47.7945C128.023 47.3416 128.262 46.9631 128.672 46.7219C129.09 46.4761 129.739 46.3425 130.677 46.502L130.845 45.5162ZM126.96 47.6268C126.801 48.5655 127.108 49.2629 127.648 49.7796C128.151 50.2611 128.849 50.5794 129.458 50.8445C130.108 51.1277 130.656 51.3513 131.035 51.6433C131.214 51.7818 131.327 51.9154 131.39 52.0489C131.45 52.1754 131.479 52.3329 131.442 52.5518L132.428 52.7194C132.496 52.3172 132.449 51.9504 132.295 51.623C132.144 51.3025 131.906 51.0524 131.645 50.8512C131.142 50.4638 130.445 50.1836 129.857 49.9277C129.228 49.6536 128.695 49.3972 128.34 49.0574C128.021 48.7526 127.846 48.3819 127.946 47.7945L126.96 47.6268ZM131.442 52.5518C131.391 52.8536 131.231 53.0899 130.937 53.241C130.626 53.4011 130.118 53.4871 129.353 53.3571L129.186 54.343C130.078 54.4946 130.826 54.4229 131.395 54.1302C131.981 53.8285 132.326 53.3168 132.428 52.7194L131.442 52.5518ZM129.353 53.3571C128.355 53.1874 127.507 52.6227 127.128 52.0634L126.3 52.6252C126.855 53.442 127.96 54.1345 129.186 54.343L129.353 53.3571ZM126.336 52.0174L125.987 52.4206L126.744 53.0745L127.092 52.6712L126.336 52.0174ZM125.944 53.0175C126.531 53.9327 127.78 54.6517 129.107 54.8773L129.275 53.8915C128.141 53.6987 127.181 53.0926 126.786 52.4777L125.944 53.0175Z" fill="#F6E6D8"/>
<path d="M141.681 57.4972L142.31 57.6969L141.17 48.5214L140.586 48.3361L134.361 55.1724L134.99 55.3722L136.724 53.4424L141.367 54.9172L141.681 57.4972ZM137.108 53.0232L140.669 49.0674L141.306 54.3563L137.108 53.0232Z" fill="#53B9AE"/>
<path d="M141.681 57.4972L141.184 57.5575L141.223 57.8765L141.529 57.9737L141.681 57.4972ZM142.31 57.6969L142.158 58.1735L142.902 58.4097L142.806 57.6353L142.31 57.6969ZM141.17 48.5214L141.666 48.4597L141.626 48.1418L141.321 48.0448L141.17 48.5214ZM140.586 48.3361L140.738 47.8596L140.432 47.7626L140.217 47.9995L140.586 48.3361ZM134.361 55.1724L133.991 54.8358L133.466 55.4127L134.21 55.6489L134.361 55.1724ZM134.99 55.3722L134.839 55.8487L135.146 55.9464L135.362 55.7063L134.99 55.3722ZM136.724 53.4424L136.875 52.9658L136.567 52.8681L136.352 53.1083L136.724 53.4424ZM141.367 54.9172L141.863 54.8568L141.825 54.5379L141.518 54.4406L141.367 54.9172ZM137.108 53.0232L136.737 52.6887L136.218 53.2651L136.957 53.4998L137.108 53.0232ZM140.669 49.0674L141.165 49.0076L141.034 47.9147L140.297 48.7329L140.669 49.0674ZM141.306 54.3563L141.155 54.8329L141.895 55.0681L141.802 54.2966L141.306 54.3563ZM141.529 57.9737L142.158 58.1735L142.461 57.2204L141.832 57.0206L141.529 57.9737ZM142.806 57.6353L141.666 48.4597L140.674 48.583L141.814 57.7586L142.806 57.6353ZM141.321 48.0448L140.738 47.8596L140.435 48.8127L141.018 48.9979L141.321 48.0448ZM140.217 47.9995L133.991 54.8358L134.731 55.5091L140.956 48.6728L140.217 47.9995ZM134.21 55.6489L134.839 55.8487L135.141 54.8956L134.512 54.6959L134.21 55.6489ZM135.362 55.7063L137.096 53.7765L136.352 53.1083L134.618 55.0381L135.362 55.7063ZM136.572 53.9189L141.216 55.3937L141.518 54.4406L136.875 52.9658L136.572 53.9189ZM140.871 54.9775L141.184 57.5575L142.177 57.4368L141.863 54.8568L140.871 54.9775ZM137.48 53.3577L141.041 49.4019L140.297 48.7329L136.737 52.6887L137.48 53.3577ZM140.173 49.1272L140.809 54.4161L141.802 54.2966L141.165 49.0076L140.173 49.1272ZM141.457 53.8798L137.26 52.5467L136.957 53.4998L141.155 54.8329L141.457 53.8798Z" fill="#F6E6D8"/>
<path d="M134.15 183.497L136.969 185.756C135.869 186.453 135.427 187.538 135.788 188.82C136.27 190.529 137.781 191.2 139.814 190.627L142.713 189.809L140.433 181.725L139.844 181.891L140.589 184.536L138.28 185.187C138.002 185.265 137.755 185.36 137.51 185.466L134.82 183.308L134.15 183.497ZM140.736 185.055L141.974 189.444L139.664 190.096C137.931 190.584 136.783 190.048 136.389 188.65C135.998 187.264 136.694 186.195 138.426 185.707L140.736 185.055Z" fill="#53B9AE"/>
<path d="M134.15 183.497L134.014 183.015L133.079 183.279L133.837 183.887L134.15 183.497ZM136.969 185.756L137.236 186.179L137.828 185.804L137.282 185.366L136.969 185.756ZM142.713 189.809L142.848 190.29L143.33 190.155L143.194 189.673L142.713 189.809ZM140.433 181.725L140.914 181.589L140.778 181.108L140.297 181.243L140.433 181.725ZM139.844 181.891L139.708 181.409L139.227 181.545L139.362 182.026L139.844 181.891ZM140.589 184.536L140.725 185.017L141.206 184.881L141.071 184.4L140.589 184.536ZM137.51 185.466L137.198 185.856L137.433 186.045L137.71 185.925L137.51 185.466ZM134.82 183.308L135.132 182.918L134.932 182.757L134.684 182.826L134.82 183.308ZM140.736 185.055L141.217 184.92L141.082 184.438L140.6 184.574L140.736 185.055ZM141.974 189.444L142.11 189.925L142.591 189.79L142.455 189.308L141.974 189.444ZM133.837 183.887L136.656 186.146L137.282 185.366L134.462 183.106L133.837 183.887ZM136.701 185.334C136.077 185.729 135.612 186.253 135.365 186.886C135.117 187.52 135.101 188.225 135.307 188.955L136.269 188.684C136.114 188.132 136.138 187.654 136.296 187.251C136.454 186.847 136.761 186.48 137.236 186.179L136.701 185.334ZM135.307 188.955C135.583 189.934 136.171 190.658 137.015 191.036C137.846 191.407 138.859 191.416 139.949 191.108L139.678 190.146C138.736 190.411 137.977 190.371 137.424 190.123C136.884 189.881 136.475 189.415 136.269 188.684L135.307 188.955ZM139.949 191.108L142.848 190.29L142.577 189.328L139.678 190.146L139.949 191.108ZM143.194 189.673L140.914 181.589L139.951 181.86L142.231 189.945L143.194 189.673ZM140.297 181.243L139.708 181.409L139.979 182.372L140.568 182.206L140.297 181.243ZM139.362 182.026L140.108 184.671L141.071 184.4L140.325 181.755L139.362 182.026ZM140.454 184.054L138.144 184.706L138.415 185.668L140.725 185.017L140.454 184.054ZM138.144 184.706C137.839 184.792 137.57 184.895 137.311 185.008L137.71 185.925C137.94 185.825 138.166 185.739 138.415 185.668L138.144 184.706ZM137.823 185.076L135.132 182.918L134.507 183.698L137.198 185.856L137.823 185.076ZM134.684 182.826L134.014 183.015L134.285 183.978L134.955 183.789L134.684 182.826ZM140.255 185.191L141.493 189.58L142.455 189.308L141.217 184.92L140.255 185.191ZM141.838 188.963L139.528 189.614L139.8 190.577L142.11 189.925L141.838 188.963ZM139.528 189.614C138.728 189.84 138.137 189.807 137.729 189.624C137.337 189.448 137.035 189.101 136.87 188.515L135.907 188.786C136.136 189.597 136.606 190.217 137.32 190.536C138.017 190.849 138.868 190.84 139.8 190.577L139.528 189.614ZM136.87 188.515C136.706 187.935 136.781 187.48 137.024 187.123C137.277 186.752 137.763 186.413 138.562 186.188L138.29 185.225C137.357 185.489 136.628 185.929 136.198 186.56C135.758 187.207 135.68 187.979 135.907 188.786L136.87 188.515ZM138.562 186.188L140.872 185.536L140.6 184.574L138.29 185.225L138.562 186.188Z" fill="#F6E6D8"/>
<path d="M129.824 184.929L130.268 188.345L125.829 188.922L125.899 189.457L130.338 188.88L130.765 192.164L125.803 192.81L125.874 193.357L131.443 192.633L130.359 184.303L124.612 185.051L124.683 185.598L129.824 184.929Z" fill="#53B9AE"/>
<path d="M129.824 184.929L130.32 184.865L130.255 184.369L129.759 184.434L129.824 184.929ZM130.268 188.345L130.332 188.84L130.828 188.776L130.764 188.28L130.268 188.345ZM125.829 188.922L125.765 188.426L125.269 188.491L125.334 188.986L125.829 188.922ZM125.899 189.457L125.403 189.522L125.468 190.018L125.963 189.953L125.899 189.457ZM130.338 188.88L130.833 188.816L130.769 188.32L130.273 188.384L130.338 188.88ZM130.765 192.164L130.829 192.66L131.325 192.596L131.261 192.1L130.765 192.164ZM125.803 192.81L125.738 192.314L125.242 192.378L125.307 192.874L125.803 192.81ZM125.874 193.357L125.378 193.422L125.442 193.918L125.938 193.853L125.874 193.357ZM131.443 192.633L131.507 193.129L132.003 193.064L131.939 192.568L131.443 192.633ZM130.359 184.303L130.855 184.239L130.791 183.743L130.295 183.807L130.359 184.303ZM124.612 185.051L124.547 184.555L124.052 184.619L124.116 185.115L124.612 185.051ZM124.683 185.598L124.187 185.662L124.252 186.158L124.748 186.094L124.683 185.598ZM129.328 184.994L129.772 188.409L130.764 188.28L130.32 184.865L129.328 184.994ZM130.203 187.849L125.765 188.426L125.894 189.418L130.332 188.84L130.203 187.849ZM125.334 188.986L125.403 189.522L126.395 189.393L126.325 188.857L125.334 188.986ZM125.963 189.953L130.402 189.376L130.273 188.384L125.834 188.962L125.963 189.953ZM129.842 188.945L130.269 192.229L131.261 192.1L130.833 188.816L129.842 188.945ZM130.7 191.669L125.738 192.314L125.867 193.306L130.829 192.66L130.7 191.669ZM125.307 192.874L125.378 193.422L126.37 193.293L126.298 192.745L125.307 192.874ZM125.938 193.853L131.507 193.129L131.378 192.137L125.809 192.861L125.938 193.853ZM131.939 192.568L130.855 184.239L129.864 184.368L130.947 192.697L131.939 192.568ZM130.295 183.807L124.547 184.555L124.676 185.546L130.424 184.799L130.295 183.807ZM124.116 185.115L124.187 185.662L125.179 185.533L125.108 184.986L124.116 185.115ZM124.748 186.094L129.888 185.425L129.759 184.434L124.619 185.102L124.748 186.094Z" fill="#F6E6D8"/>
<path d="M117.474 185.25C115.386 185.205 114.076 186.401 114.025 188.801L113.921 193.635L114.533 193.649L114.636 188.838C114.681 186.738 115.698 185.776 117.449 185.813C119.201 185.851 120.188 186.856 120.143 188.956L120.039 193.767L120.651 193.78L120.755 188.945C120.807 186.546 119.561 185.295 117.474 185.25Z" fill="#53B9AE"/>
<path d="M113.921 193.635L113.421 193.625L113.41 194.125L113.91 194.135L113.921 193.635ZM114.533 193.649L114.522 194.149L115.022 194.159L115.032 193.659L114.533 193.649ZM120.039 193.767L119.539 193.756L119.529 194.256L120.029 194.267L120.039 193.767ZM120.651 193.78L120.64 194.28L121.14 194.291L121.151 193.791L120.651 193.78ZM117.484 184.75C116.343 184.725 115.348 185.041 114.632 185.755C113.919 186.466 113.552 187.504 113.525 188.79L114.524 188.811C114.548 187.697 114.862 186.938 115.339 186.463C115.813 185.99 116.516 185.729 117.463 185.75L117.484 184.75ZM113.525 188.79L113.421 193.625L114.421 193.646L114.524 188.811L113.525 188.79ZM113.91 194.135L114.522 194.149L114.543 193.149L113.931 193.136L113.91 194.135ZM115.032 193.659L115.136 188.848L114.136 188.827L114.033 193.638L115.032 193.659ZM115.136 188.848C115.157 187.87 115.403 187.246 115.763 186.871C116.117 186.503 116.655 186.297 117.439 186.313L117.46 185.314C116.492 185.293 115.646 185.549 115.042 186.178C114.445 186.799 114.16 187.706 114.136 188.827L115.136 188.848ZM117.439 186.313C118.222 186.33 118.755 186.559 119.096 186.943C119.442 187.334 119.664 187.968 119.643 188.945L120.642 188.967C120.667 187.845 120.417 186.926 119.844 186.28C119.264 185.627 118.428 185.334 117.46 185.314L117.439 186.313ZM119.643 188.945L119.539 193.756L120.539 193.778L120.642 188.967L119.643 188.945ZM120.029 194.267L120.64 194.28L120.662 193.28L120.05 193.267L120.029 194.267ZM121.151 193.791L121.255 188.956L120.255 188.934L120.151 193.769L121.151 193.791ZM121.255 188.956C121.282 187.672 120.964 186.618 120.285 185.877C119.604 185.132 118.626 184.774 117.484 184.75L117.463 185.75C118.409 185.77 119.097 186.06 119.548 186.552C120.001 187.047 120.279 187.819 120.255 188.934L121.255 188.956Z" fill="#F6E6D8"/>
<path d="M107.188 184.394C105.141 184.046 104.033 184.904 103.834 186.075C103.323 189.08 108.743 188.492 108.32 190.977C108.165 191.888 107.317 192.51 105.708 192.237C104.963 192.11 104.161 191.742 103.555 191.152L103.248 191.599C103.808 192.169 104.707 192.614 105.618 192.769C107.652 193.115 108.726 192.239 108.926 191.067C109.445 188.015 104.021 188.627 104.444 186.142C104.597 185.243 105.453 184.646 107.109 184.928C108.221 185.117 109.197 185.746 109.665 186.434L110.013 186.03C109.523 185.265 108.418 184.603 107.188 184.394Z" fill="#53B9AE"/>
<path d="M103.555 191.152L103.904 190.794L103.479 190.38L103.143 190.869L103.555 191.152ZM103.248 191.599L102.836 191.316L102.602 191.656L102.892 191.95L103.248 191.599ZM109.665 186.434L109.251 186.715L109.617 187.254L110.043 186.761L109.665 186.434ZM110.013 186.03L110.392 186.357L110.636 186.075L110.434 185.76L110.013 186.03ZM107.272 183.901C106.171 183.714 105.257 183.84 104.571 184.23C103.876 184.626 103.465 185.266 103.341 185.991L104.327 186.159C104.403 185.713 104.645 185.338 105.066 185.099C105.495 184.855 106.158 184.726 107.104 184.887L107.272 183.901ZM103.341 185.991C103.183 186.922 103.496 187.612 104.036 188.123C104.539 188.598 105.237 188.915 105.844 189.18C106.494 189.462 107.041 189.688 107.42 189.981C107.599 190.12 107.712 190.254 107.775 190.388C107.835 190.516 107.865 190.674 107.827 190.893L108.813 191.06C108.882 190.658 108.834 190.291 108.68 189.964C108.53 189.643 108.293 189.392 108.032 189.19C107.529 188.801 106.833 188.519 106.244 188.263C105.614 187.988 105.079 187.733 104.723 187.396C104.403 187.094 104.23 186.731 104.327 186.159L103.341 185.991ZM107.827 190.893C107.774 191.207 107.61 191.454 107.32 191.612C107.018 191.776 106.527 191.869 105.792 191.744L105.624 192.729C106.498 192.878 107.236 192.796 107.798 192.49C108.374 192.177 108.712 191.657 108.813 191.06L107.827 190.893ZM105.792 191.744C105.137 191.632 104.431 191.307 103.904 190.794L103.206 191.511C103.891 192.178 104.789 192.587 105.624 192.729L105.792 191.744ZM103.143 190.869L102.836 191.316L103.66 191.882L103.967 191.436L103.143 190.869ZM102.892 191.95C103.536 192.605 104.535 193.092 105.534 193.262L105.701 192.276C104.878 192.136 104.081 191.733 103.605 191.249L102.892 191.95ZM105.534 193.262C106.63 193.448 107.536 193.317 108.213 192.918C108.899 192.515 109.296 191.87 109.418 191.151L108.433 190.984C108.356 191.436 108.116 191.815 107.706 192.056C107.289 192.302 106.64 192.436 105.701 192.276L105.534 193.262ZM109.418 191.151C109.578 190.213 109.27 189.515 108.731 188.998C108.228 188.517 107.529 188.199 106.92 187.934C106.27 187.65 105.723 187.427 105.344 187.135C105.164 186.996 105.052 186.863 104.989 186.729C104.929 186.603 104.899 186.445 104.937 186.226L103.951 186.059C103.882 186.461 103.93 186.828 104.084 187.155C104.235 187.476 104.472 187.726 104.734 187.927C105.236 188.314 105.933 188.594 106.521 188.85C107.151 189.124 107.684 189.381 108.039 189.721C108.357 190.025 108.533 190.396 108.433 190.984L109.418 191.151ZM104.937 186.226C104.988 185.924 105.148 185.688 105.441 185.537C105.753 185.377 106.261 185.291 107.025 185.421L107.193 184.435C106.301 184.283 105.553 184.355 104.984 184.648C104.397 184.95 104.052 185.461 103.951 186.059L104.937 186.226ZM107.025 185.421C108.024 185.591 108.871 186.155 109.251 186.715L110.078 186.153C109.524 185.336 108.419 184.643 107.193 184.435L107.025 185.421ZM110.043 186.761L110.392 186.357L109.635 185.703L109.286 186.107L110.043 186.761ZM110.434 185.76C109.847 184.845 108.599 184.126 107.272 183.901L107.104 184.887C108.238 185.079 109.198 185.685 109.592 186.3L110.434 185.76Z" fill="#F6E6D8"/>
<path d="M94.6887 181.281L94.0596 181.081L95.1996 190.257L95.7829 190.442L102.008 183.606L101.379 183.406L99.6458 185.336L95.0024 183.861L94.6887 181.281ZM99.2609 185.755L95.7004 189.711L95.0635 184.422L99.2609 185.755Z" fill="#53B9AE"/>
<path d="M94.6887 181.281L95.185 181.22L95.1462 180.902L94.84 180.804L94.6887 181.281ZM94.0596 181.081L94.211 180.605L93.4672 180.368L93.5634 181.143L94.0596 181.081ZM95.1996 190.257L94.7035 190.318L94.743 190.636L95.0483 190.733L95.1996 190.257ZM95.7829 190.442L95.6316 190.918L95.9369 191.015L96.1526 190.779L95.7829 190.442ZM102.008 183.606L102.378 183.942L102.903 183.365L102.16 183.129L102.008 183.606ZM101.379 183.406L101.531 182.929L101.223 182.832L101.007 183.072L101.379 183.406ZM99.6458 185.336L99.4945 185.812L99.8021 185.91L100.018 185.67L99.6458 185.336ZM95.0024 183.861L94.5061 183.921L94.5448 184.24L94.851 184.337L95.0024 183.861ZM99.2609 185.755L99.6325 186.089L100.151 185.513L99.4122 185.278L99.2609 185.755ZM95.7004 189.711L95.204 189.77L95.3356 190.863L96.0721 190.045L95.7004 189.711ZM95.0635 184.422L95.2149 183.945L94.4742 183.71L94.5671 184.481L95.0635 184.422ZM94.84 180.804L94.211 180.605L93.9083 181.558L94.5373 181.757L94.84 180.804ZM93.5634 181.143L94.7035 190.318L95.6958 190.195L94.5558 181.019L93.5634 181.143ZM95.0483 190.733L95.6316 190.918L95.9343 189.965L95.351 189.78L95.0483 190.733ZM96.1526 190.779L102.378 183.942L101.639 183.269L95.4132 190.105L96.1526 190.779ZM102.16 183.129L101.531 182.929L101.228 183.882L101.857 184.082L102.16 183.129ZM101.007 183.072L99.2739 185.002L100.018 185.67L101.751 183.74L101.007 183.072ZM99.7972 184.859L95.1538 183.384L94.851 184.337L99.4945 185.812L99.7972 184.859ZM95.4987 183.801L95.185 181.22L94.1923 181.341L94.5061 183.921L95.4987 183.801ZM98.8893 185.42L95.3288 189.376L96.0721 190.045L99.6325 186.089L98.8893 185.42ZM96.1968 189.651L95.5599 184.362L94.5671 184.481L95.204 189.77L96.1968 189.651ZM94.9122 184.898L99.1095 186.231L99.4122 185.278L95.2149 183.945L94.9122 184.898Z" fill="#F6E6D8"/>
<path d="M177.234 177.955C209.844 145.345 209.844 92.4734 177.234 59.8634C144.624 27.2535 91.7524 27.2535 59.1425 59.8634C26.5325 92.4734 26.5325 145.345 59.1425 177.955C91.7524 210.565 144.624 210.565 177.234 177.955Z" stroke="#F6E6D8" stroke-width="3" stroke-linecap="round" stroke-linejoin="round"/>
<path d="M151.319 95.1053H85.0504C83.5646 95.1053 82.3601 96.3098 82.3601 97.7956V145.878C82.3601 147.364 83.5646 148.569 85.0504 148.569H151.319C152.804 148.569 154.009 147.364 154.009 145.878V97.7956C154.009 96.3098 152.804 95.1053 151.319 95.1053Z" stroke="#F6E6D8" stroke-width="3" stroke-linecap="round" stroke-linejoin="round"/>
<path d="M101.439 95.0482C107.095 79.8857 129.274 79.8762 134.939 95.0482" stroke="#F6E6D8" stroke-width="3" stroke-linecap="round" stroke-linejoin="round"/>
<path d="M96.4866 95.0578C100.536 78.8781 121.136 72.7466 133.38 84.078C136.555 87.0155 138.846 90.856 139.892 95.0578" stroke="#F6E6D8" stroke-width="3" stroke-linecap="round" stroke-linejoin="round"/>
<path d="M134.379 120.287L139.407 125.316C140.995 126.904 139.873 129.623 137.62 129.623H116.64" stroke="#F6E6D8" stroke-width="3" stroke-linecap="round" stroke-linejoin="round"/>
<path d="M108.674 113.614L116.402 105.885C117.391 104.897 118.988 104.897 119.967 105.885L133.323 119.071" stroke="#F6E6D8" stroke-width="3" stroke-linecap="round" stroke-linejoin="round"/>
<path d="M107.267 115.344L96.9618 125.316C95.3743 126.904 96.496 129.623 98.749 129.623H114.073" stroke="#F6E6D8" stroke-width="3" stroke-linecap="round" stroke-linejoin="round"/>
<path d="M103.027 115.677L107.267 115.344V119.974" stroke="#F6E6D8" stroke-width="3" stroke-linecap="round" stroke-linejoin="round"/>
<path d="M133.19 114.812L133.323 119.061L128.703 118.852" stroke="#F6E6D8" stroke-width="3" stroke-linecap="round" stroke-linejoin="round"/>
<path d="M118.855 132.636L115.813 129.67L119.283 126.609" stroke="#F6E6D8" stroke-width="3" stroke-linecap="round" stroke-linejoin="round"/>
</svg>
