<svg width="239" height="240" viewBox="0 0 239 240" fill="none" xmlns="http://www.w3.org/2000/svg">
<circle cx="118.5" cy="119.5" r="102.5" fill="#53B9AE"/>
<path d="M179.25 179.333C212.231 146.352 212.231 92.8787 179.25 59.8975C146.269 26.9163 92.7959 26.9163 59.8147 59.8975C26.8335 92.8787 26.8335 146.352 59.8147 179.333C92.7959 212.314 146.269 212.314 179.25 179.333Z" stroke="#F6E6D8" stroke-width="3" stroke-linecap="round" stroke-linejoin="round"/>
<path d="M96.3083 58.1873L93.2807 56.2157C94.3071 55.4142 94.6405 54.2912 94.1547 53.051C93.5069 51.3973 91.9374 50.8779 89.9709 51.6482L87.1664 52.7467L90.23 60.5681L90.7998 60.3449L89.7976 57.7862L92.0323 56.9109C92.3004 56.8059 92.5375 56.6872 92.7702 56.5574L95.6603 58.4411L96.3083 58.1873ZM89.6006 57.2834L87.9375 53.0375L90.1722 52.1622C91.8482 51.5057 93.0441 51.9266 93.5737 53.2785C94.0988 54.6193 93.5113 55.7516 91.8353 56.4081L89.6006 57.2834Z" fill="#53B9AE"/>
<path d="M96.3083 58.1873L96.4907 58.6528L97.3953 58.2985L96.5812 57.7683L96.3083 58.1873ZM93.2807 56.2157L92.973 55.8216L92.4211 56.2526L93.0079 56.6347L93.2807 56.2157ZM87.1664 52.7467L86.984 52.2812L86.5184 52.4635L86.7008 52.9291L87.1664 52.7467ZM90.23 60.5681L89.7644 60.7505L89.9468 61.2161L90.4123 61.0337L90.23 60.5681ZM90.7998 60.3449L90.9822 60.8105L91.4477 60.6281L91.2654 60.1626L90.7998 60.3449ZM89.7976 57.7862L89.6152 57.3207L89.1497 57.503L89.332 57.9686L89.7976 57.7862ZM92.7702 56.5574L93.0432 56.1386L92.7903 55.9737L92.5266 56.1208L92.7702 56.5574ZM95.6603 58.4411L95.3872 58.86L95.6029 59.0006L95.8426 58.9067L95.6603 58.4411ZM89.6006 57.2834L89.1351 57.4658L89.3174 57.9313L89.783 57.749L89.6006 57.2834ZM87.9375 53.0375L87.7552 52.572L87.2896 52.7543L87.472 53.2199L87.9375 53.0375ZM96.5812 57.7683L93.5536 55.7967L93.0079 56.6347L96.0355 58.6063L96.5812 57.7683ZM93.5885 56.6098C94.1713 56.1546 94.5817 55.5879 94.766 54.9334C94.9506 54.2779 94.8969 53.575 94.6202 52.8686L93.6891 53.2333C93.8982 53.7672 93.9207 54.2459 93.8035 54.6623C93.6859 55.0797 93.4165 55.4753 92.973 55.8216L93.5885 56.6098ZM94.6202 52.8686C94.2495 51.922 93.5931 51.2595 92.7158 50.9664C91.8529 50.6781 90.8439 50.7693 89.7885 51.1827L90.1533 52.1138C91.0644 51.7569 91.8235 51.7226 92.3989 51.9148C92.9599 52.1023 93.4122 52.5262 93.6891 53.2333L94.6202 52.8686ZM89.7885 51.1827L86.984 52.2812L87.3487 53.2123L90.1533 52.1138L89.7885 51.1827ZM86.7008 52.9291L89.7644 60.7505L90.6955 60.3858L87.6319 52.5644L86.7008 52.9291ZM90.4123 61.0337L90.9822 60.8105L90.6175 59.8794L90.0476 60.1026L90.4123 61.0337ZM91.2654 60.1626L90.2631 57.6039L89.332 57.9686L90.3342 60.5273L91.2654 60.1626ZM89.9799 58.2518L92.2146 57.3765L91.8499 56.4453L89.6152 57.3207L89.9799 58.2518ZM92.2146 57.3765C92.5095 57.261 92.7675 57.1315 93.0138 56.9941L92.5266 56.1208C92.3075 56.243 92.0913 56.3508 91.8499 56.4453L92.2146 57.3765ZM92.4972 56.9763L95.3872 58.86L95.9333 58.0222L93.0432 56.1386L92.4972 56.9763ZM95.8426 58.9067L96.4907 58.6528L96.126 57.7217L95.4779 57.9756L95.8426 58.9067ZM90.0662 57.1011L88.4031 52.8552L87.472 53.2199L89.1351 57.4658L90.0662 57.1011ZM88.1199 53.5031L90.3546 52.6278L89.9899 51.6966L87.7552 52.572L88.1199 53.5031ZM90.3546 52.6278C91.1291 52.3244 91.7198 52.2994 92.1443 52.4414C92.5514 52.5775 92.886 52.8939 93.1081 53.4609L94.0392 53.0962C93.7317 52.3112 93.2036 51.7412 92.4614 51.493C91.7366 51.2507 90.8914 51.3435 89.9899 51.6966L90.3546 52.6278ZM93.1081 53.4609C93.3276 54.0213 93.2978 54.4815 93.091 54.8604C92.8759 55.2547 92.426 55.6398 91.653 55.9425L92.0177 56.8737C92.9207 56.52 93.6025 56.0106 93.9688 55.3395C94.3435 54.653 94.3449 53.8766 94.0392 53.0962L93.1081 53.4609ZM91.653 55.9425L89.4183 56.8179L89.783 57.749L92.0177 56.8737L91.653 55.9425Z" fill="#F6E6D8"/>
<path d="M100.541 56.3067L99.7655 52.9511L104.127 51.9435L104.005 51.4173L99.6439 52.425L98.8983 49.198L103.774 48.0715L103.65 47.5337L98.1778 48.7979L100.069 56.9823L105.716 55.6775L105.592 55.1397L100.541 56.3067Z" fill="#53B9AE"/>
<path d="M100.541 56.3067L100.054 56.4193L100.166 56.9064L100.653 56.7939L100.541 56.3067ZM99.7655 52.9511L99.6529 52.464L99.1658 52.5765L99.2783 53.0637L99.7655 52.9511ZM104.127 51.9435L104.239 52.4306L104.726 52.3181L104.614 51.8309L104.127 51.9435ZM104.005 51.4173L104.492 51.3048L104.38 50.8176L103.892 50.9302L104.005 51.4173ZM99.6439 52.425L99.1568 52.5375L99.2693 53.0247L99.7565 52.9122L99.6439 52.425ZM98.8983 49.198L98.7858 48.7108L98.2986 48.8234L98.4112 49.3106L98.8983 49.198ZM103.774 48.0715L103.886 48.5587L104.374 48.4461L104.261 47.9589L103.774 48.0715ZM103.65 47.5337L104.137 47.4211L104.024 46.9339L103.537 47.0465L103.65 47.5337ZM98.1778 48.7979L98.0652 48.3108L97.578 48.4233L97.6906 48.9105L98.1778 48.7979ZM100.069 56.9823L99.5816 57.0949L99.6942 57.5821L100.181 57.4695L100.069 56.9823ZM105.716 55.6775L105.829 56.1647L106.316 56.0521L106.203 55.565L105.716 55.6775ZM105.592 55.1397L106.079 55.0271L105.966 54.54L105.479 54.6525L105.592 55.1397ZM101.028 56.1942L100.253 52.8386L99.2783 53.0637L100.054 56.4193L101.028 56.1942ZM99.8781 53.4383L104.239 52.4306L104.014 51.4563L99.6529 52.464L99.8781 53.4383ZM104.614 51.8309L104.492 51.3048L103.518 51.5299L103.639 52.056L104.614 51.8309ZM103.892 50.9302L99.5314 51.9378L99.7565 52.9122L104.118 51.9045L103.892 50.9302ZM100.131 52.3124L99.3855 49.0854L98.4112 49.3106L99.1568 52.5375L100.131 52.3124ZM99.0109 49.6852L103.886 48.5587L103.661 47.5843L98.7858 48.7108L99.0109 49.6852ZM104.261 47.9589L104.137 47.4211L103.162 47.6462L103.287 48.1841L104.261 47.9589ZM103.537 47.0465L98.0652 48.3108L98.2903 49.2851L103.762 48.0208L103.537 47.0465ZM97.6906 48.9105L99.5816 57.0949L100.556 56.8698L98.6649 48.6854L97.6906 48.9105ZM100.181 57.4695L105.829 56.1647L105.603 55.1904L99.9562 56.4952L100.181 57.4695ZM106.203 55.565L106.079 55.0271L105.105 55.2523L105.229 55.7901L106.203 55.565ZM105.479 54.6525L100.428 55.8196L100.653 56.7939L105.704 55.6269L105.479 54.6525Z" fill="#F6E6D8"/>
<path d="M113.104 54.7524C114.288 54.6534 115.319 54.1697 115.984 53.3315L115.568 52.9688C114.91 53.7344 114.062 54.1063 113.081 54.1883C110.94 54.3673 109.194 52.9238 109.018 50.8192C108.842 48.7145 110.325 47.001 112.465 46.822C113.446 46.74 114.343 46.954 115.119 47.5996L115.469 47.1729C114.674 46.4567 113.578 46.163 112.394 46.262C109.907 46.47 108.204 48.4307 108.408 50.8702C108.612 53.3096 110.617 54.9603 113.104 54.7524Z" fill="#53B9AE"/>
<path d="M115.984 53.3315L116.376 53.642L116.672 53.2682L116.312 52.9547L115.984 53.3315ZM115.568 52.9688L115.897 52.5921L115.517 52.2611L115.189 52.6428L115.568 52.9688ZM115.119 47.5996L114.799 47.9841L115.187 48.3059L115.506 47.9165L115.119 47.5996ZM115.469 47.1729L115.855 47.4899L116.158 47.121L115.804 46.8016L115.469 47.1729ZM113.146 55.2506C114.438 55.1426 115.609 54.6097 116.376 53.642L115.592 53.0209C115.03 53.7298 114.138 54.1642 113.062 54.2541L113.146 55.2506ZM116.312 52.9547L115.897 52.5921L115.239 53.3456L115.655 53.7082L116.312 52.9547ZM115.189 52.6428C114.628 53.2948 113.909 53.6173 113.039 53.6901L113.123 54.6866C114.214 54.5953 115.191 54.174 115.947 53.2949L115.189 52.6428ZM113.039 53.6901C111.164 53.8468 109.669 52.5975 109.516 50.7775L108.52 50.8608C108.72 53.2501 110.717 54.8878 113.123 54.6866L113.039 53.6901ZM109.516 50.7775C109.364 48.9575 110.632 47.4771 112.507 47.3203L112.423 46.3238C110.017 46.525 108.32 48.4715 108.52 50.8608L109.516 50.7775ZM112.507 47.3203C113.381 47.2472 114.141 47.4368 114.799 47.9841L115.439 47.2151C114.544 46.4712 113.51 46.2329 112.423 46.3238L112.507 47.3203ZM115.506 47.9165L115.855 47.4899L115.082 46.856L114.732 47.2826L115.506 47.9165ZM115.804 46.8016C114.884 45.9725 113.641 45.656 112.352 45.7637L112.436 46.7602C113.515 46.67 114.465 46.9408 115.134 47.5443L115.804 46.8016ZM112.352 45.7637C109.601 45.9938 107.682 48.1862 107.91 50.9118L108.907 50.8285C108.726 48.6751 110.213 46.9462 112.436 46.7602L112.352 45.7637ZM107.91 50.9118C108.138 53.6374 110.394 55.4807 113.146 55.2506L113.062 54.2541C110.839 54.44 109.087 52.9819 108.907 50.8285L107.91 50.9118Z" fill="#F6E6D8"/>
<path d="M120.075 54.4372L120.687 54.4513L120.88 46.0535L120.269 46.0394L120.075 54.4372Z" fill="#53B9AE"/>
<path d="M120.075 54.4372L119.575 54.4256L119.564 54.9255L120.064 54.937L120.075 54.4372ZM120.687 54.4513L120.675 54.9511L121.175 54.9626L121.187 54.4628L120.687 54.4513ZM120.88 46.0535L121.38 46.065L121.392 45.5651L120.892 45.5536L120.88 46.0535ZM120.269 46.0394L120.28 45.5395L119.78 45.528L119.769 46.0279L120.269 46.0394ZM120.064 54.937L120.675 54.9511L120.698 53.9514L120.087 53.9373L120.064 54.937ZM121.187 54.4628L121.38 46.065L120.381 46.042L120.187 54.4397L121.187 54.4628ZM120.892 45.5536L120.28 45.5395L120.257 46.5393L120.869 46.5534L120.892 45.5536ZM119.769 46.0279L119.575 54.4256L120.575 54.4487L120.768 46.0509L119.769 46.0279Z" fill="#F6E6D8"/>
<path d="M128.091 55.0768C129.269 55.2323 130.379 54.9795 131.207 54.302L130.878 53.8592C130.072 54.4668 129.164 54.6496 128.188 54.5208C126.059 54.2397 124.66 52.4573 124.937 50.3635C125.213 48.2697 127.026 46.9113 129.156 47.1924C130.131 47.3212 130.962 47.7214 131.583 48.5175L132.016 48.1752C131.392 47.3061 130.384 46.7856 129.206 46.6301C126.731 46.3035 124.65 47.8565 124.33 50.2834C124.009 52.7103 125.616 54.7502 128.091 55.0768Z" fill="#53B9AE"/>
<path d="M131.207 54.302L131.524 54.6889L131.893 54.3868L131.608 54.0039L131.207 54.302ZM130.878 53.8592L131.28 53.5611L130.979 53.1568L130.577 53.4598L130.878 53.8592ZM131.583 48.5175L131.189 48.8251L131.499 49.222L131.894 48.9095L131.583 48.5175ZM132.016 48.1752L132.326 48.5672L132.7 48.2712L132.422 47.8837L132.016 48.1752ZM128.025 55.5725C129.311 55.7422 130.568 55.471 131.524 54.6889L130.89 53.9151C130.19 54.488 129.226 54.7224 128.156 54.5811L128.025 55.5725ZM131.608 54.0039L131.28 53.5611L130.477 54.1573L130.806 54.6001L131.608 54.0039ZM130.577 53.4598C129.89 53.9774 129.119 54.1393 128.254 54.0251L128.123 55.0165C129.209 55.1599 130.253 54.9563 131.179 54.2585L130.577 53.4598ZM128.254 54.0251C126.389 53.7789 125.193 52.2396 125.432 50.4289L124.441 50.2981C124.127 52.6751 125.729 54.7005 128.123 55.0165L128.254 54.0251ZM125.432 50.4289C125.671 48.6183 127.225 47.4419 129.09 47.6881L129.221 46.6967C126.827 46.3807 124.755 47.921 124.441 50.2981L125.432 50.4289ZM129.09 47.6881C129.96 47.8029 130.663 48.1502 131.189 48.8251L131.978 48.2099C131.262 47.2925 130.303 46.8394 129.221 46.6967L129.09 47.6881ZM131.894 48.9095L132.326 48.5672L131.706 47.7831L131.273 48.1254L131.894 48.9095ZM132.422 47.8837C131.7 46.8777 130.553 46.3036 129.271 46.1344L129.14 47.1258C130.215 47.2676 131.084 47.7344 131.61 48.4667L132.422 47.8837ZM129.271 46.1344C126.534 45.7731 124.192 47.5064 123.834 50.218L124.826 50.3488C125.108 48.2065 126.929 46.8338 129.14 47.1258L129.271 46.1344ZM123.834 50.218C123.476 52.9296 125.288 55.2112 128.025 55.5725L128.156 54.5811C125.944 54.2892 124.543 52.4911 124.826 50.3488L123.834 50.218Z" fill="#F6E6D8"/>
<path d="M134.899 56.192L140.152 57.6397L140.298 57.1075L135.636 55.8225L137.722 48.2566L137.132 48.094L134.899 56.192Z" fill="#53B9AE"/>
<path d="M134.899 56.192L134.417 56.0591L134.285 56.5411L134.767 56.674L134.899 56.192ZM140.152 57.6397L140.019 58.1217L140.501 58.2545L140.634 57.7725L140.152 57.6397ZM140.298 57.1075L140.78 57.2404L140.913 56.7583L140.431 56.6255L140.298 57.1075ZM135.636 55.8225L135.154 55.6896L135.021 56.1716L135.503 56.3045L135.636 55.8225ZM137.722 48.2566L138.204 48.3895L138.336 47.9074L137.854 47.7746L137.722 48.2566ZM137.132 48.094L137.264 47.6119L136.782 47.4791L136.649 47.9611L137.132 48.094ZM134.767 56.674L140.019 58.1217L140.284 57.1576L135.032 55.71L134.767 56.674ZM140.634 57.7725L140.78 57.2404L139.816 56.9746L139.67 57.5068L140.634 57.7725ZM140.431 56.6255L135.769 55.3404L135.503 56.3045L140.165 57.5895L140.431 56.6255ZM136.118 55.9553L138.204 48.3895L137.239 48.1237L135.154 55.6896L136.118 55.9553ZM137.854 47.7746L137.264 47.6119L136.999 48.576L137.589 48.7386L137.854 47.7746ZM136.649 47.9611L134.417 56.0591L135.381 56.3248L137.614 48.2268L136.649 47.9611Z" fill="#F6E6D8"/>
<path d="M148.906 61.1041L149.512 61.3646L149.277 52.1215L148.714 51.88L141.849 58.0737L142.456 58.3342L144.37 56.5834L148.846 58.5058L148.906 61.1041ZM144.794 56.204L148.725 52.6158L148.841 57.9417L144.794 56.204Z" fill="#53B9AE"/>
<path d="M148.906 61.1041L148.406 61.1156L148.414 61.4368L148.709 61.5636L148.906 61.1041ZM149.512 61.3646L149.315 61.824L150.032 62.1319L150.012 61.3518L149.512 61.3646ZM149.277 52.1215L149.776 52.1087L149.768 51.7884L149.474 51.662L149.277 52.1215ZM148.714 51.88L148.911 51.4206L148.617 51.2941L148.379 51.5087L148.714 51.88ZM141.849 58.0737L141.514 57.7025L140.935 58.2253L141.652 58.5332L141.849 58.0737ZM142.456 58.3342L142.258 58.7936L142.555 58.921L142.793 58.7031L142.456 58.3342ZM144.37 56.5834L144.567 56.124L144.27 55.9966L144.032 56.2144L144.37 56.5834ZM148.846 58.5058L149.346 58.4943L149.339 58.1731L149.044 58.0464L148.846 58.5058ZM144.794 56.204L144.457 55.8347L143.884 56.3574L144.597 56.6634L144.794 56.204ZM148.725 52.6158L149.225 52.605L149.201 51.5044L148.388 52.2466L148.725 52.6158ZM148.841 57.9417L148.643 58.4011L149.357 58.7078L149.34 57.9308L148.841 57.9417ZM148.709 61.5636L149.315 61.824L149.71 60.9051L149.103 60.6447L148.709 61.5636ZM150.012 61.3518L149.776 52.1087L148.777 52.1342L149.013 61.3773L150.012 61.3518ZM149.474 51.662L148.911 51.4206L148.517 52.3394L149.079 52.5809L149.474 51.662ZM148.379 51.5087L141.514 57.7025L142.184 58.445L149.049 52.2512L148.379 51.5087ZM141.652 58.5332L142.258 58.7936L142.653 57.8747L142.046 57.6143L141.652 58.5332ZM142.793 58.7031L144.707 56.9523L144.032 56.2144L142.118 57.9652L142.793 58.7031ZM144.172 57.0428L148.649 58.9652L149.044 58.0464L144.567 56.124L144.172 57.0428ZM148.347 58.5173L148.406 61.1156L149.406 61.0927L149.346 58.4943L148.347 58.5173ZM145.131 56.5732L149.062 52.9851L148.388 52.2466L144.457 55.8347L145.131 56.5732ZM148.225 52.6267L148.341 57.9526L149.34 57.9308L149.225 52.605L148.225 52.6267ZM149.038 57.4823L144.991 55.7445L144.597 56.6634L148.643 58.4011L149.038 57.4823Z" fill="#F6E6D8"/>
<path d="M146.14 178.369L149.306 180.109C148.342 180.985 148.094 182.13 148.671 183.33C149.44 184.931 151.044 185.332 152.948 184.417L155.662 183.112L152.024 175.541L151.472 175.806L152.662 178.283L150.499 179.323C150.24 179.448 150.012 179.584 149.79 179.73L146.767 178.068L146.14 178.369ZM152.896 178.77L154.872 182.88L152.708 183.919C151.086 184.699 149.862 184.369 149.233 183.06C148.609 181.762 149.111 180.589 150.733 179.81L152.896 178.77Z" fill="#53B9AE"/>
<path d="M146.14 178.369L145.923 177.918L145.047 178.339L145.899 178.807L146.14 178.369ZM149.306 180.109L149.642 180.479L150.161 180.008L149.547 179.671L149.306 180.109ZM155.662 183.112L155.879 183.563L156.33 183.346L156.113 182.896L155.662 183.112ZM152.024 175.541L152.474 175.325L152.258 174.874L151.807 175.091L152.024 175.541ZM151.472 175.806L151.255 175.356L150.805 175.572L151.021 176.023L151.472 175.806ZM152.662 178.283L152.879 178.734L153.33 178.517L153.113 178.067L152.662 178.283ZM149.79 179.73L149.549 180.168L149.813 180.314L150.065 180.148L149.79 179.73ZM146.767 178.068L147.008 177.63L146.783 177.505L146.551 177.617L146.767 178.068ZM152.896 178.77L153.347 178.553L153.13 178.103L152.68 178.319L152.896 178.77ZM154.872 182.88L155.088 183.33L155.539 183.114L155.322 182.663L154.872 182.88ZM145.899 178.807L149.065 180.547L149.547 179.671L146.381 177.931L145.899 178.807ZM148.97 179.739C148.423 180.237 148.056 180.832 147.921 181.499C147.785 182.166 147.891 182.863 148.22 183.547L149.121 183.114C148.873 182.597 148.815 182.121 148.901 181.697C148.987 181.272 149.226 180.858 149.642 180.479L148.97 179.739ZM148.22 183.547C148.66 184.463 149.364 185.075 150.261 185.302C151.143 185.525 152.143 185.359 153.164 184.868L152.731 183.966C151.849 184.39 151.095 184.481 150.506 184.332C149.933 184.187 149.45 183.798 149.121 183.114L148.22 183.547ZM153.164 184.868L155.879 183.563L155.446 182.662L152.731 183.966L153.164 184.868ZM156.113 182.896L152.474 175.325L151.573 175.758L155.212 183.329L156.113 182.896ZM151.807 175.091L151.255 175.356L151.688 176.257L152.24 175.992L151.807 175.091ZM151.021 176.023L152.212 178.5L153.113 178.067L151.923 175.59L151.021 176.023ZM152.446 177.832L150.283 178.872L150.716 179.773L152.879 178.734L152.446 177.832ZM150.283 178.872C149.997 179.009 149.75 179.158 149.514 179.313L150.065 180.148C150.275 180.009 150.482 179.886 150.716 179.773L150.283 178.872ZM150.031 179.292L147.008 177.63L146.526 178.506L149.549 180.168L150.031 179.292ZM146.551 177.617L145.923 177.918L146.356 178.82L146.984 178.518L146.551 177.617ZM152.446 178.986L154.421 183.096L155.322 182.663L153.347 178.553L152.446 178.986ZM154.655 182.429L152.492 183.469L152.925 184.37L155.088 183.33L154.655 182.429ZM152.492 183.469C151.742 183.829 151.155 183.898 150.721 183.788C150.305 183.683 149.948 183.392 149.684 182.843L148.783 183.277C149.148 184.037 149.717 184.566 150.476 184.758C151.216 184.945 152.052 184.79 152.925 184.37L152.492 183.469ZM149.684 182.843C149.423 182.301 149.418 181.84 149.596 181.447C149.782 181.037 150.201 180.62 150.95 180.26L150.517 179.359C149.642 179.779 149 180.338 148.685 181.034C148.363 181.747 148.419 182.521 148.783 183.277L149.684 182.843ZM150.95 180.26L153.113 179.221L152.68 178.319L150.517 179.359L150.95 180.26Z" fill="#F6E6D8"/>
<path d="M142.044 180.563L143.067 183.852L138.792 185.181L138.953 185.697L143.227 184.368L144.21 187.53L139.432 189.016L139.596 189.543L144.959 187.876L142.465 179.855L136.93 181.575L137.094 182.102L142.044 180.563Z" fill="#53B9AE"/>
<path d="M142.044 180.563L142.522 180.415L142.373 179.938L141.896 180.086L142.044 180.563ZM143.067 183.852L143.215 184.33L143.693 184.181L143.544 183.704L143.067 183.852ZM138.792 185.181L138.644 184.703L138.167 184.852L138.315 185.329L138.792 185.181ZM138.953 185.697L138.475 185.845L138.624 186.322L139.101 186.174L138.953 185.697ZM143.227 184.368L143.704 184.219L143.556 183.742L143.079 183.89L143.227 184.368ZM144.21 187.53L144.359 188.008L144.836 187.859L144.688 187.382L144.21 187.53ZM139.432 189.016L139.283 188.539L138.806 188.687L138.954 189.164L139.432 189.016ZM139.596 189.543L139.118 189.692L139.267 190.169L139.744 190.021L139.596 189.543ZM144.959 187.876L145.107 188.353L145.584 188.205L145.436 187.727L144.959 187.876ZM142.465 179.855L142.942 179.706L142.794 179.229L142.316 179.377L142.465 179.855ZM136.93 181.575L136.782 181.098L136.304 181.246L136.453 181.724L136.93 181.575ZM137.094 182.102L136.617 182.251L136.765 182.728L137.242 182.58L137.094 182.102ZM141.567 180.712L142.589 184.001L143.544 183.704L142.522 180.415L141.567 180.712ZM142.918 183.375L138.644 184.703L138.941 185.658L143.215 184.33L142.918 183.375ZM138.315 185.329L138.475 185.845L139.43 185.548L139.27 185.033L138.315 185.329ZM139.101 186.174L143.375 184.845L143.079 183.89L138.804 185.219L139.101 186.174ZM142.75 184.516L143.733 187.679L144.688 187.382L143.704 184.219L142.75 184.516ZM144.062 187.053L139.283 188.539L139.58 189.493L144.359 188.008L144.062 187.053ZM138.954 189.164L139.118 189.692L140.073 189.395L139.909 188.868L138.954 189.164ZM139.744 190.021L145.107 188.353L144.81 187.398L139.447 189.066L139.744 190.021ZM145.436 187.727L142.942 179.706L141.987 180.003L144.481 188.024L145.436 187.727ZM142.316 179.377L136.782 181.098L137.079 182.053L142.613 180.332L142.316 179.377ZM136.453 181.724L136.617 182.251L137.571 181.954L137.408 181.427L136.453 181.724ZM137.242 182.58L142.193 181.041L141.896 180.086L136.946 181.625L137.242 182.58Z" fill="#F6E6D8"/>
<path d="M129.612 183.038C128.439 183.223 127.446 183.781 126.844 184.665L127.285 184.997C127.886 184.185 128.705 183.752 129.677 183.599C131.798 183.264 133.646 184.576 133.975 186.662C134.304 188.748 132.951 190.565 130.829 190.9C129.857 191.054 128.947 190.906 128.126 190.319L127.808 190.77C128.653 191.426 129.767 191.639 130.941 191.454C133.406 191.065 134.961 188.985 134.579 186.567C134.198 184.149 132.078 182.649 129.612 183.038Z" fill="#53B9AE"/>
<path d="M126.844 184.665L126.431 184.384L126.163 184.779L126.544 185.065L126.844 184.665ZM127.285 184.997L126.985 185.396L127.388 185.699L127.687 185.294L127.285 184.997ZM128.126 190.319L128.416 189.912L128.007 189.619L127.717 190.031L128.126 190.319ZM127.808 190.77L127.399 190.482L127.125 190.872L127.501 191.165L127.808 190.77ZM129.535 182.544C128.254 182.746 127.125 183.363 126.431 184.384L127.258 184.947C127.767 184.198 128.624 183.7 129.69 183.532L129.535 182.544ZM126.544 185.065L126.985 185.396L127.586 184.597L127.145 184.266L126.544 185.065ZM127.687 185.294C128.199 184.603 128.893 184.229 129.755 184.093L129.599 183.105C128.517 183.276 127.573 183.767 126.884 184.699L127.687 185.294ZM129.755 184.093C131.613 183.799 133.196 184.936 133.481 186.74L134.469 186.584C134.095 184.216 131.984 182.728 129.599 183.105L129.755 184.093ZM133.481 186.74C133.766 188.544 132.61 190.113 130.751 190.406L130.907 191.394C133.292 191.018 134.843 188.952 134.469 186.584L133.481 186.74ZM130.751 190.406C129.885 190.543 129.113 190.41 128.416 189.912L127.835 190.726C128.782 191.402 129.83 191.564 130.907 191.394L130.751 190.406ZM127.717 190.031L127.399 190.482L128.217 191.058L128.534 190.607L127.717 190.031ZM127.501 191.165C128.479 191.924 129.742 192.149 131.019 191.948L130.863 190.96C129.793 191.129 128.826 190.928 128.115 190.375L127.501 191.165ZM131.019 191.948C133.746 191.517 135.5 189.19 135.073 186.489L134.086 186.645C134.422 188.779 133.067 190.612 130.863 190.96L131.019 191.948ZM135.073 186.489C134.647 183.787 132.262 182.114 129.535 182.544L129.69 183.532C131.894 183.184 133.749 184.51 134.086 186.645L135.073 186.489Z" fill="#F6E6D8"/>
<path d="M122.711 183.859L122.1 183.886L122.472 192.278L123.083 192.251L122.711 183.859Z" fill="#53B9AE"/>
<path d="M122.711 183.859L123.211 183.837L123.189 183.337L122.689 183.359L122.711 183.859ZM122.1 183.886L122.078 183.386L121.578 183.409L121.6 183.908L122.1 183.886ZM122.472 192.278L121.973 192.3L121.995 192.799L122.494 192.777L122.472 192.278ZM123.083 192.251L123.106 192.75L123.605 192.728L123.583 192.228L123.083 192.251ZM122.689 183.359L122.078 183.386L122.122 184.385L122.733 184.358L122.689 183.359ZM121.6 183.908L121.973 192.3L122.972 192.256L122.599 183.864L121.6 183.908ZM122.494 192.777L123.106 192.75L123.061 191.751L122.45 191.778L122.494 192.777ZM123.583 192.228L123.211 183.837L122.212 183.881L122.584 192.273L123.583 192.228Z" fill="#F6E6D8"/>
<path d="M114.633 183.811C113.447 183.743 112.358 184.078 111.583 184.814L111.943 185.232C112.703 184.566 113.594 184.317 114.577 184.373C116.721 184.496 118.248 186.17 118.127 188.279C118.006 190.387 116.298 191.876 114.154 191.753C113.171 191.697 112.313 191.359 111.635 190.611L111.229 190.984C111.915 191.805 112.959 192.249 114.145 192.317C116.637 192.46 118.598 190.758 118.738 188.314C118.878 185.87 117.125 183.954 114.633 183.811Z" fill="#53B9AE"/>
<path d="M111.583 184.814L111.238 184.452L110.892 184.781L111.204 185.141L111.583 184.814ZM111.943 185.232L111.565 185.559L111.894 185.94L112.273 185.608L111.943 185.232ZM111.635 190.611L112.005 190.275L111.667 189.902L111.297 190.243L111.635 190.611ZM111.229 190.984L110.89 190.616L110.539 190.939L110.845 191.305L111.229 190.984ZM114.662 183.312C113.367 183.238 112.133 183.602 111.238 184.452L111.927 185.177C112.583 184.554 113.527 184.249 114.604 184.311L114.662 183.312ZM111.204 185.141L111.565 185.559L112.322 184.905L111.961 184.488L111.204 185.141ZM112.273 185.608C112.92 185.041 113.677 184.822 114.548 184.872L114.605 183.874C113.512 183.811 112.486 184.091 111.614 184.856L112.273 185.608ZM114.548 184.872C116.426 184.98 117.732 186.427 117.628 188.25L118.626 188.307C118.763 185.914 117.016 184.012 114.605 183.874L114.548 184.872ZM117.628 188.25C117.523 190.073 116.061 191.361 114.182 191.254L114.125 192.252C116.536 192.39 118.489 190.701 118.626 188.307L117.628 188.25ZM114.182 191.254C113.306 191.204 112.58 190.909 112.005 190.275L111.265 190.947C112.046 191.809 113.036 192.19 114.125 192.252L114.182 191.254ZM111.297 190.243L110.89 190.616L111.567 191.352L111.973 190.979L111.297 190.243ZM110.845 191.305C111.64 192.255 112.826 192.743 114.117 192.817L114.174 191.818C113.092 191.756 112.191 191.355 111.613 190.664L110.845 191.305ZM114.117 192.817C116.873 192.975 119.081 191.073 119.237 188.342L118.239 188.285C118.115 190.442 116.401 191.946 114.174 191.818L114.117 192.817ZM119.237 188.342C119.394 185.612 117.418 183.47 114.662 183.312L114.604 184.311C116.832 184.438 118.363 186.128 118.239 188.285L119.237 188.342Z" fill="#F6E6D8"/>
<path d="M107.772 183.204L102.427 182.152L102.32 182.693L107.065 183.627L105.549 191.328L106.149 191.446L107.772 183.204Z" fill="#53B9AE"/>
<path d="M107.772 183.204L108.263 183.301L108.359 182.81L107.869 182.714L107.772 183.204ZM102.427 182.152L102.523 181.661L102.033 181.564L101.936 182.055L102.427 182.152ZM102.32 182.693L101.83 182.597L101.733 183.087L102.224 183.184L102.32 182.693ZM107.065 183.627L107.556 183.724L107.652 183.233L107.162 183.137L107.065 183.627ZM105.549 191.328L105.058 191.231L104.962 191.722L105.452 191.818L105.549 191.328ZM106.149 191.446L106.053 191.936L106.543 192.033L106.64 191.542L106.149 191.446ZM107.869 182.714L102.523 181.661L102.33 182.642L107.676 183.695L107.869 182.714ZM101.936 182.055L101.83 182.597L102.811 182.79L102.917 182.248L101.936 182.055ZM102.224 183.184L106.968 184.118L107.162 183.137L102.417 182.203L102.224 183.184ZM106.575 183.531L105.058 191.231L106.039 191.424L107.556 183.724L106.575 183.531ZM105.452 191.818L106.053 191.936L106.246 190.955L105.645 190.837L105.452 191.818ZM106.64 191.542L108.263 183.301L107.282 183.108L105.659 191.349L106.64 191.542Z" fill="#F6E6D8"/>
<path d="M93.4506 179.35L92.8265 179.135L93.7484 188.335L94.3271 188.534L100.713 181.848L100.089 181.633L98.3101 183.521L93.703 181.936L93.4506 179.35ZM97.9154 183.931L94.262 187.801L93.7508 182.499L97.9154 183.931Z" fill="#53B9AE"/>
<path d="M93.4506 179.35L93.9482 179.301L93.917 178.981L93.6132 178.877L93.4506 179.35ZM92.8265 179.135L92.9891 178.662L92.2512 178.408L92.329 179.185L92.8265 179.135ZM93.7484 188.335L93.2509 188.385L93.2828 188.704L93.5858 188.808L93.7484 188.335ZM94.3271 188.534L94.1645 189.007L94.4675 189.111L94.6887 188.879L94.3271 188.534ZM100.713 181.848L101.075 182.193L101.614 181.629L100.876 181.375L100.713 181.848ZM100.089 181.633L100.252 181.16L99.9463 181.055L99.725 181.29L100.089 181.633ZM98.3101 183.521L98.1475 183.994L98.4527 184.099L98.6741 183.864L98.3101 183.521ZM93.703 181.936L93.2054 181.985L93.2366 182.305L93.5404 182.409L93.703 181.936ZM97.9154 183.931L98.279 184.274L98.8112 183.71L98.078 183.458L97.9154 183.931ZM94.262 187.801L93.7643 187.849L93.87 188.945L94.6256 188.144L94.262 187.801ZM93.7508 182.499L93.9134 182.026L93.1785 181.773L93.2531 182.547L93.7508 182.499ZM93.6132 178.877L92.9891 178.662L92.6639 179.608L93.288 179.823L93.6132 178.877ZM92.329 179.185L93.2509 188.385L94.2459 188.285L93.324 179.085L92.329 179.185ZM93.5858 188.808L94.1645 189.007L94.4898 188.061L93.911 187.862L93.5858 188.808ZM94.6887 188.879L101.075 182.193L100.351 181.502L93.9655 188.189L94.6887 188.879ZM100.876 181.375L100.252 181.16L99.9263 182.106L100.55 182.32L100.876 181.375ZM99.725 181.29L97.9462 183.178L98.6741 183.864L100.453 181.976L99.725 181.29ZM98.4728 183.048L93.8656 181.464L93.5404 182.409L98.1475 183.994L98.4728 183.048ZM94.2007 181.888L93.9482 179.301L92.953 179.398L93.2054 181.985L94.2007 181.888ZM97.5518 183.588L93.8984 187.458L94.6256 188.144L98.279 184.274L97.5518 183.588ZM94.7597 187.753L94.2485 182.451L93.2531 182.547L93.7643 187.849L94.7597 187.753ZM93.5882 182.971L97.7528 184.404L98.078 183.458L93.9134 182.026L93.5882 182.971Z" fill="#F6E6D8"/>
<path d="M86.74 176.209C85.6856 175.662 84.5552 175.521 83.5462 175.876L83.7046 176.405C84.6698 176.108 85.5855 176.245 86.4589 176.698C88.3654 177.688 89.0736 179.84 88.1007 181.715C87.1277 183.589 84.9602 184.249 83.0537 183.259C82.1803 182.806 81.5355 182.147 81.2225 181.187L80.6993 181.361C80.9897 182.391 81.7607 183.224 82.8152 183.771C85.0305 184.921 87.5162 184.169 88.6439 181.997C89.7716 179.824 88.9554 177.359 86.74 176.209Z" fill="#53B9AE"/>
<path d="M83.5462 175.876L83.3802 175.405L82.9303 175.563L83.0673 176.02L83.5462 175.876ZM83.7046 176.405L83.2257 176.548L83.3703 177.03L83.8515 176.883L83.7046 176.405ZM81.2225 181.187L81.6979 181.032L81.5419 180.553L81.0643 180.713L81.2225 181.187ZM80.6993 181.361L80.541 180.887L80.0886 181.038L80.2181 181.497L80.6993 181.361ZM86.9703 175.765C85.8195 175.168 84.5449 174.995 83.3802 175.405L83.7122 176.348C84.5655 176.048 85.5517 176.155 86.5097 176.653L86.9703 175.765ZM83.0673 176.02L83.2257 176.548L84.1835 176.261L84.0251 175.733L83.0673 176.02ZM83.8515 176.883C84.6736 176.63 85.454 176.74 86.2286 177.142L86.6892 176.255C85.7171 175.75 84.666 175.586 83.5577 175.927L83.8515 176.883ZM86.2286 177.142C87.8985 178.009 88.4982 179.863 87.6569 181.484L88.5445 181.945C89.649 179.817 88.8323 177.367 86.6892 176.255L86.2286 177.142ZM87.6569 181.484C86.8155 183.105 84.9539 183.682 83.284 182.816L82.8233 183.703C84.9664 184.815 87.4399 184.073 88.5445 181.945L87.6569 181.484ZM83.284 182.816C82.5052 182.411 81.9632 181.846 81.6979 181.032L80.7472 181.342C81.1077 182.448 81.8553 183.201 82.8233 183.703L83.284 182.816ZM81.0643 180.713L80.541 180.887L80.8575 181.836L81.3808 181.661L81.0643 180.713ZM80.2181 181.497C80.5542 182.689 81.4376 183.619 82.5848 184.215L83.0455 183.327C82.0839 182.828 81.4252 182.093 81.1805 181.226L80.2181 181.497ZM82.5848 184.215C85.0354 185.487 87.8277 184.655 89.0876 182.227L88.2001 181.766C87.2046 183.684 85.0256 184.355 83.0455 183.327L82.5848 184.215ZM89.0876 182.227C90.3476 179.799 89.421 177.037 86.9703 175.765L86.5097 176.653C88.4898 177.68 89.1955 179.848 88.2001 181.766L89.0876 182.227Z" fill="#F6E6D8"/>
<path d="M139.438 80.2349H129.611C129.611 80.9628 130.042 90.7708 119.247 90.7708C109.506 90.7708 108.884 80.9628 108.884 80.2349H101.308" stroke="#F6E6D8" stroke-width="3" stroke-linecap="round" stroke-linejoin="round"/>
<path d="M160.376 111.795L168.45 107.13L151.516 80.2349H142.503" stroke="#F6E6D8" stroke-width="3" stroke-linecap="round" stroke-linejoin="round"/>
<path d="M147.465 147.741V108.711L153.872 115.674L158.652 112.877" stroke="#F6E6D8" stroke-width="3" stroke-linecap="round" stroke-linejoin="round"/>
<path d="M102.725 155.815H138.279H147.465V150.423" stroke="#F6E6D8" stroke-width="3" stroke-linecap="round" stroke-linejoin="round"/>
<path d="M77.0945 111.335L84.6133 115.674L91.0306 108.711V155.816H100.216" stroke="#F6E6D8" stroke-width="3" stroke-linecap="round" stroke-linejoin="round"/>
<path d="M97.7829 80.2349H86.9788L70.0352 107.13L75.1499 110.128" stroke="#F6E6D8" stroke-width="3" stroke-linecap="round" stroke-linejoin="round"/>
<path d="M95.4365 77.8212L98.9421 80.2732L95.9825 83.8745" stroke="#F6E6D8" stroke-width="3" stroke-linecap="round" stroke-linejoin="round"/>
<path d="M137.13 77.8212L140.635 80.2732L137.676 83.8745" stroke="#F6E6D8" stroke-width="3" stroke-linecap="round" stroke-linejoin="round"/>
<path d="M164.514 112.867L160.376 111.795L161.889 107.389" stroke="#F6E6D8" stroke-width="3" stroke-linecap="round" stroke-linejoin="round"/>
<path d="M150.501 145.155L147.579 148.287L144.428 144.858" stroke="#F6E6D8" stroke-width="3" stroke-linecap="round" stroke-linejoin="round"/>
<path d="M106.154 158.239L102.61 155.835L105.513 152.185" stroke="#F6E6D8" stroke-width="3" stroke-linecap="round" stroke-linejoin="round"/>
<path d="M78.6461 115.319L77.0945 111.335L81.5579 109.984" stroke="#F6E6D8" stroke-width="3" stroke-linecap="round" stroke-linejoin="round"/>
<path d="M122.179 136.602C122.179 136.602 119.075 110.377 137.331 100.492" stroke="#F6E6D8" stroke-width="3" stroke-linecap="round" stroke-linejoin="round"/>
<path d="M130.875 105.464C130.875 105.464 140.616 105.119 140.961 98.1075C140.961 98.1075 134.324 97.188 130.875 105.464Z" stroke="#F6E6D8" stroke-width="3" stroke-linecap="round" stroke-linejoin="round"/>
<path d="M126.335 111.383C126.335 111.383 130.521 102.581 124.448 99.0366C124.448 99.0366 120.569 104.506 126.335 111.383Z" stroke="#F6E6D8" stroke-width="3" stroke-linecap="round" stroke-linejoin="round"/>
<path d="M124.018 118.691C124.018 118.691 133.691 119.869 135.128 112.992C135.128 112.992 128.711 111.048 124.018 118.691Z" stroke="#F6E6D8" stroke-width="3" stroke-linecap="round" stroke-linejoin="round"/>
<path d="M126.335 111.383L125.358 102.772" stroke="#F6E6D8" stroke-width="3" stroke-linecap="round" stroke-linejoin="round"/>
<path d="M131.9 114.687L124.018 118.691" stroke="#F6E6D8" stroke-width="3" stroke-linecap="round" stroke-linejoin="round"/>
<path d="M122.131 128.211C122.131 128.211 121.834 115.77 101.432 111.957" stroke="#F6E6D8" stroke-width="3" stroke-linecap="round" stroke-linejoin="round"/>
<path d="M109.104 114.716C109.104 114.716 99.7275 117.379 97.2468 110.799C97.2468 110.799 103.281 107.887 109.104 114.716Z" stroke="#F6E6D8" stroke-width="3" stroke-linecap="round" stroke-linejoin="round"/>
<path d="M115.656 117.417C115.656 117.417 108.98 110.32 113.664 105.09C113.664 105.09 119.027 109.113 115.656 117.417Z" stroke="#F6E6D8" stroke-width="3" stroke-linecap="round" stroke-linejoin="round"/>
<path d="M121.479 126.851C121.479 126.851 112.629 130.941 109.152 124.83C109.152 124.83 114.66 121.009 121.479 126.851Z" stroke="#F6E6D8" stroke-width="3" stroke-linecap="round" stroke-linejoin="round"/>
<path d="M115.656 117.417L113.951 108.921" stroke="#F6E6D8" stroke-width="3" stroke-linecap="round" stroke-linejoin="round"/>
<path d="M112.754 125.453L121.479 126.851" stroke="#F6E6D8" stroke-width="3" stroke-linecap="round" stroke-linejoin="round"/>
</svg>
