<svg width="244" height="244" viewBox="0 0 244 244" fill="none" xmlns="http://www.w3.org/2000/svg">
<circle cx="122.5" cy="122.5" r="102.5" fill="#53B9AE"/>
<path d="M101.061 56.8717L101.223 57.3446L102.142 57.0289L101.351 56.4647L101.061 56.8717ZM98.1193 54.7735L97.8285 54.3667L97.2589 54.7739L97.8289 55.1806L98.1193 54.7735ZM92.1575 51.0484L91.9951 50.5756L91.5222 50.738L91.6846 51.2109L92.1575 51.0484ZM94.8867 58.9927L94.4139 59.1552L94.5763 59.628L95.0492 59.4656L94.8867 58.9927ZM95.4655 58.7939L95.628 59.2667L96.1009 59.1043L95.9384 58.6314L95.4655 58.7939ZM94.5727 56.1949L94.4102 55.7221L93.9374 55.8845L94.0998 56.3574L94.5727 56.1949ZM97.5947 55.0933L97.8852 54.6864L97.6395 54.5109L97.3699 54.6467L97.5947 55.0933ZM100.402 57.0978L100.112 57.5048L100.321 57.6544L100.565 57.5707L100.402 57.0978ZM94.3972 55.6842L93.9244 55.8467L94.0868 56.3196L94.5597 56.1571L94.3972 55.6842ZM92.9157 51.3716L92.7532 50.8988L92.2803 51.0612L92.4428 51.5341L92.9157 51.3716ZM101.351 56.4647L98.4096 54.3665L97.8289 55.1806L100.77 57.2787L101.351 56.4647ZM98.41 55.1803C99.0117 54.7502 99.4457 54.2014 99.6576 53.5553C99.8698 52.9083 99.846 52.2037 99.5995 51.4862L98.6538 51.8111C98.8401 52.3534 98.8423 52.8326 98.7074 53.2437C98.5723 53.6557 98.2863 54.0395 97.8285 54.3667L98.41 55.1803ZM99.5995 51.4862C99.2692 50.5248 98.6415 49.835 97.7774 49.505C96.9275 49.1804 95.9156 49.2287 94.8436 49.5969L95.1686 50.5427C96.0941 50.2247 96.8538 50.2227 97.4206 50.4391C97.9732 50.6502 98.407 51.093 98.6538 51.8111L99.5995 51.4862ZM94.8436 49.5969L91.9951 50.5756L92.32 51.5213L95.1686 50.5427L94.8436 49.5969ZM91.6846 51.2109L94.4139 59.1552L95.3596 58.8302L92.6304 50.886L91.6846 51.2109ZM95.0492 59.4656L95.628 59.2667L95.3031 58.321L94.7243 58.5198L95.0492 59.4656ZM95.9384 58.6314L95.0456 56.0325L94.0998 56.3574L94.9927 58.9563L95.9384 58.6314ZM94.7351 56.6678L97.0049 55.888L96.68 54.9423L94.4102 55.7221L94.7351 56.6678ZM97.0049 55.888C97.3045 55.7851 97.5677 55.6667 97.8196 55.5399L97.3699 54.6467C97.1457 54.7595 96.9253 54.858 96.68 54.9423L97.0049 55.888ZM97.3042 55.5002L100.112 57.5048L100.693 56.6909L97.8852 54.6864L97.3042 55.5002ZM100.565 57.5707L101.223 57.3446L100.898 56.3988L100.24 56.625L100.565 57.5707ZM94.8701 55.5218L93.3885 51.2092L92.4428 51.5341L93.9244 55.8467L94.8701 55.5218ZM93.0781 51.8445L95.3479 51.0647L95.023 50.119L92.7532 50.8988L93.0781 51.8445ZM95.3479 51.0647C96.1346 50.7945 96.7258 50.7946 97.1439 50.9544C97.5449 51.1077 97.8658 51.438 98.0636 52.0139L99.0094 51.689C98.7354 50.8916 98.232 50.2997 97.501 50.0203C96.7871 49.7475 95.9386 49.8044 95.023 50.119L95.3479 51.0647ZM98.0636 52.0139C98.2592 52.5831 98.2099 53.0416 97.9872 53.4114C97.7555 53.7962 97.2897 54.1619 96.5046 54.4316L96.8295 55.3773C97.7467 55.0622 98.4495 54.5823 98.8439 53.9272C99.2474 53.2572 99.2817 52.4816 99.0094 51.689L98.0636 52.0139ZM96.5046 54.4316L94.2348 55.2114L94.5597 56.1571L96.8295 55.3773L96.5046 54.4316Z" fill="#F6E6D8"/>
<path d="M105.633 55.0855L105.141 55.1775L105.233 55.669L105.725 55.577L105.633 55.0855ZM104.999 51.7003L104.907 51.2088L104.416 51.3008L104.508 51.7923L104.999 51.7003ZM109.399 50.8769L109.491 51.3684L109.982 51.2764L109.89 50.785L109.399 50.8769ZM109.3 50.3462L109.791 50.2542L109.699 49.7627L109.208 49.8547L109.3 50.3462ZM104.9 51.1695L104.408 51.2615L104.5 51.753L104.992 51.661L104.9 51.1695ZM104.291 47.914L104.199 47.4226L103.707 47.5146L103.799 48.006L104.291 47.914ZM109.209 46.9936L109.301 47.485L109.793 47.393L109.701 46.9016L109.209 46.9936ZM109.108 46.451L109.599 46.359L109.507 45.8675L109.016 45.9595L109.108 46.451ZM103.588 47.484L103.496 46.9926L103.004 47.0846L103.096 47.576L103.588 47.484ZM105.133 55.7407L104.641 55.8327L104.733 56.3241L105.225 56.2322L105.133 55.7407ZM110.83 54.6745L110.922 55.166L111.413 55.074L111.321 54.5825L110.83 54.6745ZM110.728 54.1319L111.22 54.04L111.128 53.5485L110.636 53.6405L110.728 54.1319ZM106.124 54.9936L105.491 51.6083L104.508 51.7923L105.141 55.1775L106.124 54.9936ZM105.091 52.1918L109.491 51.3684L109.307 50.3855L104.907 51.2088L105.091 52.1918ZM109.89 50.785L109.791 50.2542L108.808 50.4381L108.907 50.9689L109.89 50.785ZM109.208 49.8547L104.808 50.6781L104.992 51.661L109.392 50.8376L109.208 49.8547ZM105.391 51.0776L104.782 47.8221L103.799 48.006L104.408 51.2615L105.391 51.0776ZM104.383 48.4055L109.301 47.485L109.117 46.5021L104.199 47.4226L104.383 48.4055ZM109.701 46.9016L109.599 46.359L108.616 46.5429L108.718 47.0855L109.701 46.9016ZM109.016 45.9595L103.496 46.9926L103.68 47.9755L109.2 46.9424L109.016 45.9595ZM103.096 47.576L104.641 55.8327L105.624 55.6487L104.079 47.3921L103.096 47.576ZM105.225 56.2322L110.922 55.166L110.738 54.1831L105.041 55.2492L105.225 56.2322ZM111.321 54.5825L111.22 54.04L110.237 54.2239L110.338 54.7665L111.321 54.5825ZM110.636 53.6405L105.541 54.5941L105.725 55.577L110.82 54.6234L110.636 53.6405Z" fill="#F6E6D8"/>
<path d="M114.983 54.0591L114.483 54.0744L114.499 54.5742L114.998 54.5588L114.983 54.0591ZM114.725 45.663L114.71 45.1633L114.21 45.1786L114.225 45.6784L114.725 45.663ZM115.578 53.4885L115.078 53.5039L115.093 54.0036L115.593 53.9883L115.578 53.4885ZM115.354 46.196L115.338 45.6962L114.839 45.7116L114.854 46.2113L115.354 46.196ZM114.998 54.5588L118.321 54.4567L118.29 53.4572L114.968 53.5593L114.998 54.5588ZM118.321 54.4567C119.763 54.4124 120.993 53.8983 121.854 53.028C122.717 52.1562 123.18 50.9572 123.138 49.6065L122.139 49.6372C122.172 50.7334 121.8 51.661 121.143 52.3246C120.485 52.9897 119.51 53.4197 118.29 53.4572L118.321 54.4567ZM123.138 49.6065C123.097 48.2558 122.561 47.0874 121.646 46.2703C120.733 45.4545 119.474 45.0168 118.032 45.0612L118.063 46.0607C119.283 46.0232 120.282 46.3926 120.98 47.016C121.676 47.638 122.105 48.541 122.139 49.6372L123.138 49.6065ZM118.032 45.0612L114.71 45.1633L114.74 46.1628L118.063 46.0607L118.032 45.0612ZM114.225 45.6784L114.483 54.0744L115.483 54.0437L115.225 45.6477L114.225 45.6784ZM116.078 53.4732L115.853 46.1806L114.854 46.2113L115.078 53.5039L116.078 53.4732ZM115.369 46.6957L118.032 46.6139L118.001 45.6144L115.338 45.6962L115.369 46.6957ZM118.032 46.6139C119.112 46.5807 119.967 46.8968 120.554 47.4221C121.14 47.9459 121.498 48.7116 121.527 49.656L122.526 49.6253C122.49 48.4346 122.03 47.4007 121.221 46.6767C120.413 45.9542 119.296 45.5746 118.001 45.6144L118.032 46.6139ZM121.527 49.656C121.556 50.6004 121.245 51.3866 120.693 51.9454C120.139 52.5057 119.305 52.8737 118.225 52.9069L118.256 53.9065C119.55 53.8667 120.642 53.4192 121.404 52.6484C122.168 51.8762 122.563 50.8159 122.526 49.6253L121.527 49.656ZM118.225 52.9069L115.562 52.9888L115.593 53.9883L118.256 53.9065L118.225 52.9069Z" fill="#F6E6D8"/>
<path d="M134.996 46.5375L135.491 46.6058L135.56 46.1105L135.064 46.0422L134.996 46.5375ZM134.39 46.4539L134.458 45.9586L133.963 45.8903L133.895 46.3856L134.39 46.4539ZM128.933 45.7016L129.429 45.7699L129.497 45.2746L129.002 45.2063L128.933 45.7016ZM128.327 45.618L128.395 45.1227L127.9 45.0544L127.832 45.5498L128.327 45.618ZM130.432 54.953C131.563 55.1089 132.588 54.9103 133.381 54.2838C134.171 53.6596 134.655 52.6702 134.831 51.3965L133.84 51.2599C133.688 52.3637 133.289 53.0816 132.761 53.4991C132.235 53.9143 131.506 54.0916 130.569 53.9624L130.432 54.953ZM134.831 51.3965L135.491 46.6058L134.501 46.4692L133.84 51.2599L134.831 51.3965ZM135.064 46.0422L134.458 45.9586L134.322 46.9492L134.928 47.0328L135.064 46.0422ZM133.895 46.3856L133.237 51.1525L134.228 51.2891L134.885 46.5222L133.895 46.3856ZM133.237 51.1525C133.104 52.1224 132.787 52.7139 132.386 53.0449C131.992 53.3696 131.434 53.5123 130.657 53.4053L130.521 54.3959C131.48 54.5282 132.35 54.3712 133.022 53.8162C133.687 53.2676 134.075 52.3996 134.228 51.2891L133.237 51.1525ZM130.657 53.4053C129.881 53.2983 129.378 53.009 129.084 52.5885C128.785 52.1605 128.638 51.5053 128.772 50.5368L127.781 50.4003C127.628 51.5121 127.769 52.4533 128.265 53.1614C128.765 53.877 129.561 54.2636 130.521 54.3959L130.657 53.4053ZM128.772 50.5368L129.429 45.7699L128.438 45.6333L127.781 50.4003L128.772 50.5368ZM129.002 45.2063L128.395 45.1227L128.259 46.1134L128.865 46.1969L129.002 45.2063ZM127.832 45.5498L127.171 50.3404L128.162 50.477L128.823 45.6863L127.832 45.5498ZM127.171 50.3404C126.996 51.613 127.191 52.696 127.78 53.5106C128.371 54.3288 129.301 54.7971 130.432 54.953L130.569 53.9624C129.631 53.8331 128.981 53.4657 128.59 52.925C128.197 52.3809 128.01 51.582 128.162 50.477L127.171 50.3404Z" fill="#F6E6D8"/>
<path d="M145.48 56.6888L145.729 57.1223L146.143 56.8846L145.925 56.4603L145.48 56.6888ZM145.228 56.1981L145.673 55.9697L145.443 55.5218L144.996 55.755L145.228 56.1981ZM146.797 51.0436L146.358 51.2826L146.598 51.7249L147.039 51.4812L146.797 51.0436ZM147.279 50.7766L147.522 51.2141L147.939 50.9833L147.728 50.5555L147.279 50.7766ZM142.133 57.422C143.374 57.7996 144.658 57.7376 145.729 57.1223L145.231 56.2553C144.446 56.7061 143.457 56.7797 142.424 56.4654L142.133 57.422ZM145.925 56.4603L145.673 55.9697L144.783 56.4266L145.035 56.9173L145.925 56.4603ZM144.996 55.755C144.234 56.1533 143.447 56.187 142.612 55.9328L142.32 56.8895C143.368 57.2084 144.432 57.1783 145.459 56.6413L144.996 55.755ZM142.612 55.9328C140.812 55.3849 139.884 53.6709 140.416 51.9237L139.459 51.6325C138.761 53.9262 140.011 56.1864 142.32 56.8895L142.612 55.9328ZM140.416 51.9237C140.948 50.1765 142.673 49.27 144.473 49.8178L144.764 48.8612C142.454 48.1581 140.158 49.3387 139.459 51.6325L140.416 51.9237ZM144.473 49.8178C145.312 50.0733 145.949 50.5307 146.358 51.2826L147.236 50.8047C146.68 49.7826 145.808 49.1788 144.764 48.8612L144.473 49.8178ZM147.039 51.4812L147.522 51.2141L147.037 50.3391L146.555 50.6061L147.039 51.4812ZM147.728 50.5555C147.18 49.4451 146.142 48.691 144.906 48.3146L144.614 49.2713C145.651 49.5868 146.432 50.1895 146.831 50.9978L147.728 50.5555ZM144.906 48.3146C142.264 47.5106 139.67 48.8377 138.874 51.4543L139.831 51.7455C140.46 49.6782 142.48 48.6216 144.614 49.2713L144.906 48.3146ZM138.874 51.4543C138.077 54.0708 139.492 56.618 142.133 57.422L142.424 56.4654C140.29 55.8157 139.201 53.8127 139.831 51.7455L138.874 51.4543Z" fill="#F6E6D8"/>
<path d="M149.123 59.3226L148.664 59.126L148.467 59.5857L148.927 59.7823L149.123 59.3226ZM149.686 59.5633L149.489 60.023L149.949 60.2197L150.146 59.76L149.686 59.5633ZM152.99 51.8403L153.449 52.0369L153.646 51.5772L153.186 51.3806L152.99 51.8403ZM152.427 51.5996L152.624 51.1399L152.164 50.9432L151.967 51.4029L152.427 51.5996ZM148.927 59.7823L149.489 60.023L149.883 59.1036L149.32 58.8629L148.927 59.7823ZM150.146 59.76L153.449 52.0369L152.53 51.6436L149.226 59.3667L150.146 59.76ZM153.186 51.3806L152.624 51.1399L152.23 52.0593L152.793 52.3L153.186 51.3806ZM151.967 51.4029L148.664 59.126L149.583 59.5193L152.887 51.7962L151.967 51.4029Z" fill="#F6E6D8"/>
<path d="M142.293 187.468L145.234 189.566C144.175 190.324 143.794 191.432 144.227 192.691C144.804 194.371 146.35 194.956 148.347 194.27L151.196 193.292L148.467 185.347L147.888 185.546L148.781 188.145L146.511 188.925C146.238 189.018 145.997 189.127 145.759 189.247L142.951 187.242L142.293 187.468ZM148.956 188.656L150.438 192.968L148.168 193.748C146.465 194.333 145.289 193.862 144.817 192.489C144.349 191.127 144.984 190.02 146.686 189.436L148.956 188.656Z" fill="#F6E6D8"/>
<path d="M142.293 187.468L142.13 186.995L141.211 187.311L142.002 187.875L142.293 187.468ZM145.234 189.566L145.525 189.973L146.094 189.566L145.524 189.159L145.234 189.566ZM151.196 193.292L151.358 193.764L151.831 193.602L151.669 193.129L151.196 193.292ZM148.467 185.347L148.939 185.185L148.777 184.712L148.304 184.874L148.467 185.347ZM147.888 185.546L147.725 185.073L147.252 185.236L147.415 185.709L147.888 185.546ZM148.781 188.145L148.943 188.618L149.416 188.455L149.253 187.983L148.781 188.145ZM145.759 189.247L145.468 189.654L145.714 189.829L145.983 189.693L145.759 189.247ZM142.951 187.242L143.241 186.835L143.032 186.686L142.788 186.769L142.951 187.242ZM148.956 188.656L149.429 188.493L149.266 188.02L148.794 188.183L148.956 188.656ZM150.438 192.968L150.6 193.441L151.073 193.279L150.91 192.806L150.438 192.968ZM142.002 187.875L144.944 189.973L145.524 189.159L142.583 187.061L142.002 187.875ZM144.943 189.16C144.342 189.59 143.908 190.139 143.696 190.785C143.483 191.432 143.507 192.136 143.754 192.854L144.7 192.529C144.513 191.987 144.511 191.507 144.646 191.096C144.781 190.684 145.067 190.3 145.525 189.973L144.943 189.16ZM143.754 192.854C144.084 193.815 144.712 194.505 145.576 194.835C146.426 195.16 147.438 195.111 148.51 194.743L148.185 193.797C147.259 194.115 146.499 194.117 145.933 193.901C145.38 193.69 144.946 193.247 144.7 192.529L143.754 192.854ZM148.51 194.743L151.358 193.764L151.033 192.819L148.185 193.797L148.51 194.743ZM151.669 193.129L148.939 185.185L147.994 185.51L150.723 193.454L151.669 193.129ZM148.304 184.874L147.725 185.073L148.05 186.019L148.629 185.82L148.304 184.874ZM147.415 185.709L148.308 188.307L149.253 187.983L148.361 185.384L147.415 185.709ZM148.618 187.672L146.348 188.452L146.673 189.398L148.943 188.618L148.618 187.672ZM146.348 188.452C146.049 188.555 145.786 188.673 145.534 188.8L145.983 189.693C146.208 189.58 146.428 189.482 146.673 189.398L146.348 188.452ZM146.049 188.84L143.241 186.835L142.66 187.649L145.468 189.654L146.049 188.84ZM142.788 186.769L142.13 186.995L142.455 187.941L143.113 187.715L142.788 186.769ZM148.483 188.818L149.965 193.131L150.91 192.806L149.429 188.493L148.483 188.818ZM150.275 192.495L148.005 193.275L148.33 194.221L150.6 193.441L150.275 192.495ZM148.005 193.275C147.219 193.545 146.627 193.545 146.209 193.386C145.808 193.232 145.487 192.902 145.29 192.326L144.344 192.651C144.618 193.448 145.121 194.04 145.852 194.32C146.566 194.593 147.415 194.536 148.33 194.221L148.005 193.275ZM145.29 192.326C145.094 191.757 145.143 191.298 145.366 190.929C145.598 190.544 146.064 190.178 146.849 189.908L146.524 188.963C145.607 189.278 144.904 189.758 144.509 190.413C144.106 191.083 144.072 191.858 144.344 192.651L145.29 192.326ZM146.849 189.908L149.118 189.129L148.794 188.183L146.524 188.963L146.849 189.908Z" fill="#F6E6D8"/>
<path d="M137.72 189.254L138.354 192.64L133.954 193.463L134.054 193.994L138.453 193.17L139.063 196.426L134.144 197.346L134.246 197.889L139.766 196.856L138.221 188.599L132.523 189.665L132.625 190.208L137.72 189.254Z" fill="#F6E6D8"/>
<path d="M137.72 189.254L138.212 189.162L138.12 188.671L137.629 188.763L137.72 189.254ZM138.354 192.64L138.446 193.131L138.937 193.039L138.845 192.548L138.354 192.64ZM133.954 193.463L133.862 192.972L133.371 193.064L133.463 193.555L133.954 193.463ZM134.054 193.994L133.562 194.086L133.654 194.577L134.146 194.485L134.054 193.994ZM138.453 193.17L138.945 193.078L138.853 192.587L138.361 192.679L138.453 193.17ZM139.063 196.426L139.155 196.917L139.646 196.825L139.554 196.334L139.063 196.426ZM134.144 197.346L134.052 196.855L133.561 196.947L133.653 197.438L134.144 197.346ZM134.246 197.889L133.754 197.981L133.846 198.472L134.338 198.38L134.246 197.889ZM139.766 196.856L139.858 197.347L140.349 197.255L140.257 196.764L139.766 196.856ZM138.221 188.599L138.712 188.507L138.62 188.016L138.129 188.108L138.221 188.599ZM132.523 189.665L132.431 189.174L131.94 189.266L132.032 189.757L132.523 189.665ZM132.625 190.208L132.133 190.3L132.225 190.791L132.717 190.699L132.625 190.208ZM137.229 189.346L137.863 192.732L138.845 192.548L138.212 189.162L137.229 189.346ZM138.262 192.148L133.862 192.972L134.046 193.954L138.446 193.131L138.262 192.148ZM133.463 193.555L133.562 194.086L134.545 193.902L134.446 193.371L133.463 193.555ZM134.146 194.485L138.545 193.662L138.361 192.679L133.962 193.502L134.146 194.485ZM137.962 193.262L138.571 196.518L139.554 196.334L138.945 193.078L137.962 193.262ZM138.971 195.934L134.052 196.855L134.236 197.838L139.155 196.917L138.971 195.934ZM133.653 197.438L133.754 197.981L134.737 197.797L134.635 197.254L133.653 197.438ZM134.338 198.38L139.858 197.347L139.674 196.364L134.154 197.398L134.338 198.38ZM140.257 196.764L138.712 188.507L137.729 188.691L139.274 196.948L140.257 196.764ZM138.129 188.108L132.431 189.174L132.615 190.157L138.312 189.091L138.129 188.108ZM132.032 189.757L132.133 190.3L133.116 190.116L133.015 189.573L132.032 189.757ZM132.717 190.699L137.812 189.746L137.629 188.763L132.533 189.717L132.717 190.699Z" fill="#F6E6D8"/>
<path d="M128.37 190.291L125.048 190.393C122.385 190.475 120.64 192.281 120.715 194.728C120.79 197.175 122.643 198.871 125.306 198.789L128.628 198.687L128.37 190.291ZM127.776 190.861L128 198.154L125.337 198.236C122.962 198.309 121.392 196.844 121.327 194.709C121.261 192.574 122.738 191.016 125.113 190.943L127.776 190.861Z" fill="#F6E6D8"/>
<path d="M128.37 190.291L128.87 190.275L128.855 189.776L128.355 189.791L128.37 190.291ZM128.628 198.687L128.644 199.187L129.143 199.171L129.128 198.671L128.628 198.687ZM127.776 190.861L128.275 190.846L128.26 190.346L127.76 190.361L127.776 190.861ZM128 198.154L128.015 198.654L128.515 198.638L128.499 198.138L128 198.154ZM128.355 189.791L125.032 189.893L125.063 190.893L128.386 190.79L128.355 189.791ZM125.032 189.893C123.59 189.937 122.361 190.451 121.499 191.322C120.636 192.194 120.174 193.393 120.215 194.743L121.215 194.713C121.181 193.616 121.553 192.689 122.21 192.025C122.868 191.36 123.843 190.93 125.063 190.893L125.032 189.893ZM120.215 194.743C120.257 196.094 120.792 197.262 121.707 198.079C122.62 198.895 123.879 199.333 125.321 199.289L125.29 198.289C124.07 198.327 123.071 197.957 122.373 197.334C121.677 196.712 121.248 195.809 121.215 194.713L120.215 194.743ZM125.321 199.289L128.644 199.187L128.613 198.187L125.29 198.289L125.321 199.289ZM129.128 198.671L128.87 190.275L127.871 190.306L128.129 198.702L129.128 198.671ZM127.276 190.877L127.5 198.169L128.499 198.138L128.275 190.846L127.276 190.877ZM127.984 197.654L125.322 197.736L125.352 198.735L128.015 198.654L127.984 197.654ZM125.322 197.736C124.241 197.769 123.386 197.453 122.799 196.928C122.214 196.404 121.855 195.638 121.826 194.694L120.827 194.724C120.863 195.915 121.323 196.949 122.132 197.673C122.94 198.396 124.058 198.775 125.352 198.735L125.322 197.736ZM121.826 194.694C121.797 193.749 122.108 192.963 122.66 192.404C123.214 191.844 124.048 191.476 125.128 191.443L125.097 190.443C123.803 190.483 122.711 190.931 121.949 191.701C121.186 192.474 120.79 193.534 120.827 194.724L121.826 194.694ZM125.128 191.443L127.791 191.361L127.76 190.361L125.097 190.443L125.128 191.443Z" fill="#F6E6D8"/>
<path d="M112.853 189.882C110.785 189.597 109.345 190.634 109.018 193.012L108.357 197.802L108.963 197.886L109.621 193.119C109.907 191.039 111.029 190.2 112.764 190.439C114.5 190.679 115.364 191.791 115.077 193.871L114.42 198.638L115.026 198.722L115.687 193.931C116.014 191.554 114.921 190.167 112.853 189.882Z" fill="#F6E6D8"/>
<path d="M108.357 197.802L107.862 197.734L107.794 198.229L108.289 198.298L108.357 197.802ZM108.963 197.886L108.895 198.381L109.39 198.45L109.459 197.954L108.963 197.886ZM114.42 198.638L113.924 198.57L113.856 199.065L114.352 199.134L114.42 198.638ZM115.026 198.722L114.958 199.217L115.453 199.286L115.521 198.79L115.026 198.722ZM112.921 189.387C111.791 189.231 110.766 189.43 109.973 190.056C109.182 190.68 108.698 191.67 108.522 192.943L109.513 193.08C109.665 191.976 110.064 191.258 110.593 190.841C111.118 190.426 111.847 190.248 112.785 190.378L112.921 189.387ZM108.522 192.943L107.862 197.734L108.852 197.871L109.513 193.08L108.522 192.943ZM108.289 198.298L108.895 198.381L109.032 197.391L108.425 197.307L108.289 198.298ZM109.459 197.954L110.116 193.187L109.125 193.051L108.468 197.818L109.459 197.954ZM110.116 193.187C110.25 192.218 110.566 191.626 110.967 191.295C111.361 190.97 111.92 190.828 112.696 190.935L112.832 189.944C111.873 189.812 111.003 189.969 110.331 190.524C109.666 191.072 109.278 191.94 109.125 193.051L110.116 193.187ZM112.696 190.935C113.472 191.042 113.975 191.331 114.269 191.751C114.568 192.179 114.715 192.835 114.582 193.803L115.572 193.94C115.726 192.828 115.584 191.887 115.089 191.179C114.588 190.463 113.792 190.076 112.832 189.944L112.696 190.935ZM114.582 193.803L113.924 198.57L114.915 198.707L115.572 193.94L114.582 193.803ZM114.352 199.134L114.958 199.217L115.094 198.227L114.488 198.143L114.352 199.134ZM115.521 198.79L116.182 194L115.191 193.863L114.531 198.654L115.521 198.79ZM116.182 194C116.357 192.727 116.162 191.644 115.574 190.829C114.983 190.011 114.052 189.543 112.921 189.387L112.785 190.378C113.722 190.507 114.373 190.874 114.763 191.415C115.156 191.959 115.344 192.758 115.191 193.863L116.182 194Z" fill="#F6E6D8"/>
<path d="M101.075 187.406C99.9381 187.06 98.8011 187.128 97.8737 187.661L98.1257 188.152C99.0207 187.684 99.9461 187.652 100.887 187.939C102.942 188.564 104.031 190.551 103.416 192.572C102.801 194.592 100.79 195.636 98.7349 195.01C97.7935 194.724 97.0393 194.193 96.5567 193.306L96.074 193.573C96.5472 194.532 97.4571 195.211 98.5936 195.557C100.981 196.284 103.288 195.092 104.001 192.75C104.714 190.408 103.462 188.133 101.075 187.406Z" fill="#F6E6D8"/>
<path d="M97.8737 187.661L97.6245 187.227L97.211 187.465L97.4289 187.889L97.8737 187.661ZM98.1257 188.152L97.681 188.38L97.911 188.828L98.3573 188.595L98.1257 188.152ZM96.5567 193.306L96.9959 193.067L96.7553 192.625L96.3147 192.869L96.5567 193.306ZM96.074 193.573L95.832 193.136L95.4146 193.367L95.6256 193.794L96.074 193.573ZM101.22 186.928C99.9798 186.55 98.695 186.612 97.6245 187.227L98.1228 188.094C98.9071 187.644 99.8965 187.57 100.929 187.884L101.22 186.928ZM97.4289 187.889L97.681 188.38L98.5705 187.923L98.3184 187.433L97.4289 187.889ZM98.3573 188.595C99.1195 188.196 99.907 188.163 100.742 188.417L101.033 187.46C99.9852 187.141 98.9218 187.171 97.8941 187.708L98.3573 188.595ZM100.742 188.417C102.542 188.965 103.469 190.679 102.938 192.426L103.894 192.717C104.592 190.424 103.343 188.163 101.033 187.46L100.742 188.417ZM102.938 192.426C102.406 194.173 100.68 195.08 98.8805 194.532L98.5893 195.489C100.899 196.192 103.196 195.011 103.894 192.717L102.938 192.426ZM98.8805 194.532C98.0411 194.276 97.405 193.819 96.9959 193.067L96.1175 193.545C96.6736 194.567 97.5459 195.171 98.5893 195.489L98.8805 194.532ZM96.3147 192.869L95.832 193.136L96.3161 194.011L96.7987 193.744L96.3147 192.869ZM95.6256 193.794C96.1732 194.905 97.2114 195.659 98.448 196.035L98.7392 195.078C97.7027 194.763 96.9211 194.16 96.5225 193.352L95.6256 193.794ZM98.448 196.035C101.089 196.839 103.683 195.512 104.48 192.896L103.523 192.604C102.894 194.672 100.873 195.728 98.7392 195.078L98.448 196.035ZM104.48 192.896C105.276 190.279 103.862 187.732 101.22 186.928L100.929 187.884C103.063 188.534 104.152 190.537 103.523 192.604L104.48 192.896Z" fill="#F6E6D8"/>
<path d="M94.24 185.027L93.6774 184.786L90.3736 192.509L90.9363 192.75L94.24 185.027Z" fill="#F6E6D8"/>
<path d="M94.24 185.027L94.6997 185.224L94.8964 184.764L94.4367 184.567L94.24 185.027ZM93.6774 184.786L93.874 184.327L93.4143 184.13L93.2177 184.59L93.6774 184.786ZM90.3736 192.509L89.9139 192.313L89.7173 192.773L90.177 192.969L90.3736 192.509ZM90.9363 192.75L90.7397 193.21L91.1994 193.407L91.396 192.947L90.9363 192.75ZM94.4367 184.567L93.874 184.327L93.4807 185.246L94.0434 185.487L94.4367 184.567ZM93.2177 184.59L89.9139 192.313L90.8333 192.706L94.1371 184.983L93.2177 184.59ZM90.177 192.969L90.7397 193.21L91.133 192.29L90.5703 192.05L90.177 192.969ZM91.396 192.947L94.6997 185.224L93.7803 184.83L90.4766 192.554L91.396 192.947Z" fill="#F6E6D8"/>
<path d="M182.52 182.52C216.121 148.919 216.121 94.4411 182.52 60.8401C148.919 27.239 94.4411 27.239 60.8401 60.8401C27.239 94.4411 27.239 148.919 60.8401 182.52C94.4411 216.121 148.919 216.121 182.52 182.52Z" stroke="#F6E6D8" stroke-width="3" stroke-linecap="round" stroke-linejoin="round"/>
<path d="M122.21 111.542L142.437 123.238L172.244 141.388C172.548 141.564 172.842 141.78 173.077 142.044C175.094 144.248 175.065 145.904 174.497 147.03C173.919 148.176 172.665 148.813 171.392 148.813H131.819" stroke="#F6E6D8" stroke-width="3" stroke-linecap="round" stroke-linejoin="round"/>
<path d="M132.789 132.141C132.789 132.141 113.502 125.206 108.36 148.862C108.36 148.862 130.712 152.78 132.789 132.141V132.141Z" stroke="#F6E6D8" stroke-width="3" stroke-linecap="round" stroke-linejoin="round"/>
<path d="M129.018 134.718C128.959 134.992 108.331 148.813 108.331 148.813H71.9708C70.6876 148.813 69.4338 148.176 68.8657 147.03C68.4151 146.139 68.3074 144.905 69.2869 143.337C69.904 142.348 70.8052 141.564 71.8043 140.967L97.2619 126.186L122.22 111.542V103.608C127.118 103.608 131.085 99.641 131.085 94.7434C131.085 89.8458 127.118 85.8788 122.22 85.8788C117.322 85.8788 113.355 89.8458 113.355 94.7434" stroke="#F6E6D8" stroke-width="3" stroke-linecap="round" stroke-linejoin="round"/>
</svg>
