<?xml version="1.0" encoding="UTF-8"?><svg id="Capa_2" xmlns="http://www.w3.org/2000/svg" viewBox="0 0 177.68 177.68"><defs><style>.cls-1{fill:none;stroke:#626c23;stroke-linecap:round;stroke-linejoin:round;stroke-width:2px;}.cls-2{fill:#626c23;font-family:Montserrat-Light, Montserrat;font-size:15px;}</style></defs><g id="OBJECTS"><g><g><g><text class="cls-2" transform="translate(59.99 25.09) rotate(-18.96)"><tspan x="0" y="0">R</tspan></text><text class="cls-2" transform="translate(70.43 21.55) rotate(-10.6)"><tspan x="0" y="0">E</tspan></text><text class="cls-2" transform="translate(80.5 19.6) rotate(-1.76)"><tspan x="0" y="0">D</tspan></text><text class="cls-2" transform="translate(93.08 19.24) rotate(7.85)"><tspan x="0" y="0">U</tspan></text><text class="cls-2" transform="translate(105.06 20.96) rotate(16.93)"><tspan x="0" y="0">C</tspan></text><text class="cls-2" transform="translate(115.58 24.36) rotate(23.16)"><tspan x="0" y="0">I</tspan></text></g><g><text class="cls-2" transform="translate(117.68 153.59) rotate(161.04)"><tspan x="0" y="0">R</tspan></text><text class="cls-2" transform="translate(107.24 157.13) rotate(169.4)"><tspan x="0" y="0">E</tspan></text><text class="cls-2" transform="translate(97.17 159.09) rotate(178.24)"><tspan x="0" y="0">D</tspan></text><text class="cls-2" transform="translate(84.59 159.44) rotate(-172.15)"><tspan x="0" y="0">U</tspan></text><text class="cls-2" transform="translate(72.61 157.73) rotate(-163.07)"><tspan x="0" y="0">C</tspan></text><text class="cls-2" transform="translate(62.1 154.33) rotate(-156.84)"><tspan x="0" y="0">I</tspan></text></g><circle class="cls-1" cx="88.84" cy="88.84" r="87.84" transform="translate(-36.8 88.84) rotate(-45)"/></g><g><path class="cls-1" d="M89.38,78.49l20.65,11.94,30.43,18.53c.31,.18,.61,.4,.85,.67,2.06,2.25,2.03,3.94,1.45,5.09-.59,1.17-1.87,1.82-3.17,1.82h-40.4"/><path class="cls-1" d="M100.18,99.52s-19.69-7.08-24.94,17.07c0,0,22.82,4,24.94-17.07Z"/><path class="cls-1" d="M96.33,102.15c-.06,.28-21.12,14.39-21.12,14.39H38.09c-1.31,0-2.59-.65-3.17-1.82-.46-.91-.57-2.17,.43-3.77,.63-1.01,1.55-1.81,2.57-2.42l25.99-15.09,25.48-14.95v-8.1c5,0,9.05-4.05,9.05-9.05s-4.05-9.05-9.05-9.05-9.05,4.05-9.05,9.05"/></g></g></g></svg>