<?xml version="1.0" encoding="UTF-8"?><svg id="Capa_2" xmlns="http://www.w3.org/2000/svg" viewBox="0 0 177.68 177.68"><defs><style>.cls-1{fill:none;stroke:#626c23;stroke-linecap:round;stroke-linejoin:round;stroke-width:2px;}.cls-2{fill:#626c23;font-family:Montserrat-Light, Montserrat;font-size:15px;}</style></defs><g id="OBJECTS"><g><g><g><text class="cls-2" transform="translate(63.79 23.59) rotate(-15.75)"><tspan x="0" y="0">R</tspan></text><text class="cls-2" transform="translate(74.42 20.64) rotate(-7.41)"><tspan x="0" y="0">E</tspan></text><text class="cls-2" transform="translate(84.6 19.26) rotate(1.23)"><tspan x="0" y="0">U</tspan></text><text class="cls-2" transform="translate(96.72 19.64) rotate(9.65)"><tspan x="0" y="0">S</tspan></text><text class="cls-2" transform="translate(105.98 21.18) rotate(17.62)"><tspan x="0" y="0">A</tspan></text></g><g><text class="cls-2" transform="translate(113.89 155.1) rotate(164.25)"><tspan x="0" y="0">R</tspan></text><text class="cls-2" transform="translate(103.25 158.05) rotate(172.59)"><tspan x="0" y="0">E</tspan></text><text class="cls-2" transform="translate(93.07 159.42) rotate(-178.77)"><tspan x="0" y="0">U</tspan></text><text class="cls-2" transform="translate(80.96 159.05) rotate(-170.35)"><tspan x="0" y="0">S</tspan></text><text class="cls-2" transform="translate(71.69 157.51) rotate(-162.38)"><tspan x="0" y="0">A</tspan></text></g><circle class="cls-1" cx="88.84" cy="88.84" r="87.84" transform="translate(-36.8 88.84) rotate(-45)"/></g><g><rect class="cls-1" x="51.15" y="63.8" width="75.37" height="56.24" rx="2.83" ry="2.83"/><path class="cls-1" d="M71.22,63.74c5.95-15.95,29.28-15.96,35.24,0"/><path class="cls-1" d="M66.01,63.75c4.26-17.02,25.93-23.47,38.81-11.55,3.34,3.09,5.75,7.13,6.85,11.55"/><path class="cls-1" d="M105.87,90.29l5.29,5.29c1.67,1.67,.49,4.53-1.88,4.53h-22.07"/><path class="cls-1" d="M78.83,83.27l8.13-8.13c1.04-1.04,2.72-1.04,3.75,0l14.05,13.87"/><path class="cls-1" d="M77.35,85.09l-10.84,10.49c-1.67,1.67-.49,4.53,1.88,4.53h16.12"/><polyline class="cls-1" points="72.89 85.44 77.35 85.09 77.35 89.96"/><polyline class="cls-1" points="104.62 84.53 104.76 89 99.9 88.78"/><polyline class="cls-1" points="89.54 103.28 86.34 100.16 89.99 96.94"/></g></g></g></svg>