<?xml version="1.0" encoding="UTF-8"?><svg id="Capa_2" xmlns="http://www.w3.org/2000/svg" viewBox="0 0 177.68 177.68"><defs><style>.cls-1{stroke:#626c23;}.cls-1,.cls-2{fill:none;stroke-linecap:round;stroke-linejoin:round;stroke-width:2px;}.cls-3{fill:#626c23;font-family:Montserrat-Light, Montserrat;font-size:15px;}.cls-2{stroke:#606a2e;}</style></defs><g id="OBJECTS"><g><g><g><text class="cls-3" transform="translate(57.19 26.37) rotate(-21.39)"><tspan x="0" y="0">R</tspan></text><text class="cls-3" transform="translate(67.47 22.39) rotate(-13.01)"><tspan x="0" y="0">E</tspan></text><text class="cls-3" transform="translate(77.42 20.08) rotate(-4.78)"><tspan x="0" y="0">C</tspan></text><text class="cls-3" transform="translate(88.45 19.34) rotate(1.32)"><tspan x="0" y="0">I</tspan></text><text class="cls-3" transform="translate(93.22 19.3) rotate(7.52)"><tspan x="0" y="0">C</tspan></text><text class="cls-3" transform="translate(104.11 20.82) rotate(15.41)"><tspan x="0" y="0">L</tspan></text><text class="cls-3" transform="translate(112.85 23.19) rotate(23.24)"><tspan x="0" y="0">A</tspan></text></g><g><text class="cls-3" transform="translate(125.3 149.79) rotate(154.33)"><tspan x="0" y="0">R</tspan></text><text class="cls-3" transform="translate(115.33 154.53) rotate(162.73)"><tspan x="0" y="0">E</tspan></text><text class="cls-3" transform="translate(105.56 157.57) rotate(171.03)"><tspan x="0" y="0">C</tspan></text><text class="cls-3" transform="translate(94.64 159.12) rotate(177.46)"><tspan x="0" y="0">I</tspan></text><text class="cls-3" transform="translate(89.85 159.5) rotate(-176.72)"><tspan x="0" y="0">C</tspan></text><text class="cls-3" transform="translate(78.89 158.79) rotate(-168.86)"><tspan x="0" y="0">L</tspan></text><text class="cls-3" transform="translate(70.01 157.08) rotate(-161.02)"><tspan x="0" y="0">A</tspan></text><text class="cls-3" transform="translate(59.91 153.61) rotate(-152.57)"><tspan x="0" y="0">C</tspan></text></g><circle class="cls-1" cx="88.84" cy="88.84" r="87.84" transform="translate(-36.8 88.84) rotate(-45)"/></g><g><path class="cls-1" d="M109.92,49.38h-10.26c0,.76,.45,11-10.82,11-10.17,0-10.82-10.24-10.82-11h-7.91"/><polyline class="cls-1" points="131.78 82.33 140.21 77.46 122.53 49.38 113.12 49.38"/><polyline class="cls-1" points="118.3 119.86 118.3 79.11 124.99 86.38 129.98 83.46"/><polyline class="cls-1" points="71.59 128.29 108.71 128.29 118.3 128.29 118.3 122.66"/><polyline class="cls-1" points="44.83 81.85 52.68 86.38 59.38 79.11 59.38 128.29 68.97 128.29"/><polyline class="cls-1" points="66.43 49.38 55.15 49.38 37.46 77.46 42.8 80.59"/><polyline class="cls-1" points="63.98 46.86 67.64 49.42 64.55 53.18"/><polyline class="cls-1" points="107.51 46.86 111.17 49.42 108.08 53.18"/><polyline class="cls-1" points="136.1 83.45 131.78 82.33 133.36 77.73"/><polyline class="cls-1" points="121.47 117.16 118.42 120.43 115.13 116.85"/><polyline class="cls-1" points="75.17 130.82 71.47 128.31 74.5 124.5"/><polyline class="cls-1" points="46.45 86.01 44.83 81.85 49.49 80.44"/><g><g><path class="cls-2" d="M91.9,108.23s-3.24-27.38,15.82-37.7"/><path class="cls-2" d="M100.98,75.72s10.17-.36,10.53-7.68c0,0-6.93-.96-10.53,7.68Z"/><path class="cls-2" d="M96.24,81.9s4.37-9.19-1.97-12.89c0,0-4.05,5.71,1.97,12.89Z"/><path class="cls-2" d="M93.82,89.53s10.1,1.23,11.6-5.95c0,0-6.7-2.03-11.6,5.95Z"/><line class="cls-2" x1="96.24" y1="81.9" x2="95.22" y2="72.91"/><line class="cls-2" x1="102.05" y1="85.35" x2="93.82" y2="89.53"/></g><g><path class="cls-2" d="M91.85,99.47s-.31-12.99-21.61-16.97"/><path class="cls-2" d="M78.25,85.38s-9.79,2.78-12.38-4.09c0,0,6.3-3.04,12.38,4.09Z"/><path class="cls-2" d="M85.09,88.2s-6.97-7.41-2.08-12.87c0,0,5.6,4.2,2.08,12.87Z"/><path class="cls-2" d="M91.17,98.05s-9.24,4.27-12.87-2.11c0,0,5.75-3.99,12.87,2.11Z"/><line class="cls-2" x1="85.09" y1="88.2" x2="83.31" y2="79.33"/><line class="cls-2" x1="82.06" y1="96.59" x2="91.17" y2="98.05"/></g></g></g></g></g></svg>