<svg width="110" height="110" viewBox="0 0 110 110" fill="none" xmlns="http://www.w3.org/2000/svg">
<path d="M110 55C110 85.3757 85.3757 110 55 110C24.6243 110 0 85.3757 0 55C0 24.6243 24.6243 0 55 0C85.3757 0 110 24.6243 110 55Z" fill="#F6E6D8"/>
<path d="M26.6791 75.5224V37.3135H39.5895C42.5746 37.3135 45.0248 37.8234 46.9403 38.8433C48.8557 39.8508 50.2736 41.2376 51.194 43.0038C52.1144 44.7699 52.5746 46.7787 52.5746 49.0299C52.5746 51.2811 52.1144 53.2774 51.194 55.0187C50.2736 56.76 48.8619 58.1282 46.9589 59.1232C45.0559 60.1058 42.6244 60.5971 39.6642 60.5971H29.2164V56.418H39.5149C41.5547 56.418 43.1965 56.1194 44.4403 55.5224C45.6965 54.9254 46.6045 54.0796 47.1642 52.9851C47.7363 51.8782 48.0224 50.5597 48.0224 49.0299C48.0224 47.5 47.7363 46.163 47.1642 45.0187C46.592 43.8744 45.6778 42.9913 44.4216 42.3694C43.1654 41.7351 41.5049 41.418 39.4403 41.418H31.3059V75.5224H26.6791ZM44.6642 58.3583L54.0671 75.5224H48.694L39.4403 58.3583H44.6642Z" fill="black"/>
<path d="M60.2845 75.5224V37.3135H83.3442V41.418H64.9114V54.3284H82.1502V58.4329H64.9114V71.418H83.6427V75.5224H60.2845Z" fill="black"/>
</svg>
