<svg width="268" height="268" viewBox="0 0 268 268" fill="none" xmlns="http://www.w3.org/2000/svg">
<path d="M24.2727 184V90.9091H55.7273C63 90.9091 68.9697 92.1515 73.6364 94.6364C78.303 97.0909 81.7576 100.47 84 104.773C86.2424 109.076 87.3636 113.97 87.3636 119.455C87.3636 124.939 86.2424 129.803 84 134.045C81.7576 138.288 78.3182 141.621 73.6818 144.045C69.0455 146.439 63.1212 147.636 55.9091 147.636H30.4545V137.455H55.5455C60.5152 137.455 64.5152 136.727 67.5455 135.273C70.6061 133.818 72.8182 131.758 74.1818 129.091C75.5758 126.394 76.2727 123.182 76.2727 119.455C76.2727 115.727 75.5758 112.47 74.1818 109.682C72.7879 106.894 70.5606 104.742 67.5 103.227C64.4394 101.682 60.3939 100.909 55.3636 100.909H35.5455V184H24.2727ZM68.0909 142.182L91 184H77.9091L55.3636 142.182H68.0909ZM106.148 184V90.9091H162.33V100.909H117.42V132.364H159.42V142.364H117.42V174H163.057V184H106.148Z" fill="black"/>
<path d="M185.568 92.5455H187.682V104.102C187.682 105.295 187.401 106.361 186.838 107.298C186.281 108.23 185.494 108.966 184.477 109.506C183.46 110.04 182.267 110.307 180.898 110.307C179.528 110.307 178.335 110.04 177.318 109.506C176.301 108.966 175.511 108.23 174.949 107.298C174.392 106.361 174.114 105.295 174.114 104.102V92.5455H176.227V103.932C176.227 104.784 176.415 105.543 176.79 106.207C177.165 106.866 177.699 107.386 178.392 107.767C179.091 108.142 179.926 108.33 180.898 108.33C181.869 108.33 182.705 108.142 183.403 107.767C184.102 107.386 184.636 106.866 185.006 106.207C185.381 105.543 185.568 104.784 185.568 103.932V92.5455ZM201.448 96.9091C201.346 96.0455 200.931 95.375 200.204 94.8977C199.477 94.4205 198.585 94.1818 197.528 94.1818C196.755 94.1818 196.079 94.3068 195.499 94.5568C194.925 94.8068 194.477 95.1506 194.153 95.5881C193.835 96.0256 193.675 96.5227 193.675 97.0795C193.675 97.5455 193.786 97.946 194.008 98.2812C194.235 98.6108 194.525 98.8864 194.877 99.108C195.229 99.3239 195.599 99.5028 195.985 99.6449C196.371 99.7812 196.727 99.892 197.05 99.9773L198.823 100.455C199.278 100.574 199.783 100.739 200.34 100.949C200.903 101.159 201.44 101.446 201.951 101.81C202.468 102.168 202.894 102.628 203.229 103.19C203.565 103.753 203.732 104.443 203.732 105.261C203.732 106.205 203.485 107.057 202.991 107.818C202.502 108.58 201.786 109.185 200.843 109.634C199.906 110.082 198.766 110.307 197.425 110.307C196.175 110.307 195.093 110.105 194.178 109.702C193.269 109.298 192.553 108.736 192.031 108.014C191.513 107.293 191.221 106.455 191.153 105.5H193.335C193.391 106.159 193.613 106.705 193.999 107.136C194.391 107.562 194.886 107.881 195.482 108.091C196.085 108.295 196.732 108.398 197.425 108.398C198.232 108.398 198.957 108.267 199.599 108.006C200.241 107.739 200.749 107.369 201.124 106.898C201.499 106.42 201.687 105.864 201.687 105.227C201.687 104.648 201.525 104.176 201.201 103.812C200.877 103.449 200.451 103.153 199.923 102.926C199.394 102.699 198.823 102.5 198.21 102.33L196.062 101.716C194.698 101.324 193.619 100.764 192.823 100.037C192.028 99.3097 191.63 98.358 191.63 97.1818C191.63 96.2045 191.894 95.3523 192.423 94.625C192.957 93.892 193.673 93.3239 194.57 92.9205C195.474 92.5114 196.482 92.3068 197.596 92.3068C198.721 92.3068 199.721 92.5085 200.596 92.9119C201.471 93.3097 202.164 93.8551 202.675 94.5483C203.192 95.2415 203.465 96.0284 203.494 96.9091H201.448ZM207.923 110H205.707L212.116 92.5455H214.298L220.707 110H218.491L213.276 95.3068H213.139L207.923 110ZM208.741 103.182H217.673V105.057H208.741V103.182ZM188.159 135H186.045C185.92 134.392 185.702 133.858 185.389 133.398C185.082 132.938 184.707 132.551 184.264 132.239C183.827 131.92 183.341 131.682 182.807 131.523C182.273 131.364 181.716 131.284 181.136 131.284C180.08 131.284 179.122 131.551 178.264 132.085C177.412 132.619 176.733 133.406 176.227 134.446C175.727 135.486 175.477 136.761 175.477 138.273C175.477 139.784 175.727 141.06 176.227 142.099C176.733 143.139 177.412 143.926 178.264 144.46C179.122 144.994 180.08 145.261 181.136 145.261C181.716 145.261 182.273 145.182 182.807 145.023C183.341 144.864 183.827 144.628 184.264 144.315C184.707 143.997 185.082 143.608 185.389 143.148C185.702 142.682 185.92 142.148 186.045 141.545H188.159C188 142.437 187.71 143.236 187.29 143.94C186.869 144.645 186.347 145.244 185.722 145.739C185.097 146.227 184.395 146.599 183.616 146.855C182.844 147.111 182.017 147.239 181.136 147.239C179.648 147.239 178.324 146.875 177.165 146.148C176.006 145.42 175.094 144.386 174.429 143.045C173.764 141.705 173.432 140.114 173.432 138.273C173.432 136.432 173.764 134.841 174.429 133.5C175.094 132.159 176.006 131.125 177.165 130.398C178.324 129.67 179.648 129.307 181.136 129.307C182.017 129.307 182.844 129.435 183.616 129.69C184.395 129.946 185.097 130.321 185.722 130.815C186.347 131.304 186.869 131.901 187.29 132.605C187.71 133.304 188 134.102 188.159 135ZM193.688 129.545V147H191.575V129.545H193.688ZM211.972 135H209.858C209.733 134.392 209.514 133.858 209.202 133.398C208.895 132.938 208.52 132.551 208.077 132.239C207.639 131.92 207.153 131.682 206.619 131.523C206.085 131.364 205.528 131.284 204.949 131.284C203.892 131.284 202.935 131.551 202.077 132.085C201.224 132.619 200.545 133.406 200.04 134.446C199.54 135.486 199.29 136.761 199.29 138.273C199.29 139.784 199.54 141.06 200.04 142.099C200.545 143.139 201.224 143.926 202.077 144.46C202.935 144.994 203.892 145.261 204.949 145.261C205.528 145.261 206.085 145.182 206.619 145.023C207.153 144.864 207.639 144.628 208.077 144.315C208.52 143.997 208.895 143.608 209.202 143.148C209.514 142.682 209.733 142.148 209.858 141.545H211.972C211.813 142.437 211.523 143.236 211.102 143.94C210.682 144.645 210.159 145.244 209.534 145.739C208.909 146.227 208.207 146.599 207.429 146.855C206.656 147.111 205.83 147.239 204.949 147.239C203.46 147.239 202.136 146.875 200.977 146.148C199.818 145.42 198.906 144.386 198.241 143.045C197.577 141.705 197.244 140.114 197.244 138.273C197.244 136.432 197.577 134.841 198.241 133.5C198.906 132.159 199.818 131.125 200.977 130.398C202.136 129.67 203.46 129.307 204.949 129.307C205.83 129.307 206.656 129.435 207.429 129.69C208.207 129.946 208.909 130.321 209.534 130.815C210.159 131.304 210.682 131.901 211.102 132.605C211.523 133.304 211.813 134.102 211.972 135ZM215.387 147V129.545H217.501V145.125H225.614V147H215.387ZM230.705 147H228.489L234.898 129.545H237.08L243.489 147H241.273L236.057 132.307H235.92L230.705 147ZM231.523 140.182H240.455V142.057H231.523V140.182ZM179.5 184H174.114V166.545H179.739C181.432 166.545 182.881 166.895 184.085 167.594C185.29 168.287 186.213 169.284 186.855 170.585C187.497 171.881 187.818 173.432 187.818 175.239C187.818 177.057 187.494 178.622 186.847 179.935C186.199 181.241 185.256 182.247 184.017 182.952C182.778 183.651 181.273 184 179.5 184ZM176.227 182.125H179.364C180.807 182.125 182.003 181.847 182.952 181.29C183.901 180.733 184.608 179.94 185.074 178.912C185.54 177.884 185.773 176.659 185.773 175.239C185.773 173.83 185.543 172.616 185.082 171.599C184.622 170.577 183.935 169.793 183.02 169.247C182.105 168.696 180.966 168.42 179.602 168.42H176.227V182.125ZM202.818 166.545H204.932V178.102C204.932 179.295 204.651 180.361 204.088 181.298C203.531 182.23 202.744 182.966 201.727 183.506C200.71 184.04 199.517 184.307 198.148 184.307C196.778 184.307 195.585 184.04 194.568 183.506C193.551 182.966 192.761 182.23 192.199 181.298C191.642 180.361 191.364 179.295 191.364 178.102V166.545H193.477V177.932C193.477 178.784 193.665 179.543 194.04 180.207C194.415 180.866 194.949 181.386 195.642 181.767C196.341 182.142 197.176 182.33 198.148 182.33C199.119 182.33 199.955 182.142 200.653 181.767C201.352 181.386 201.886 180.866 202.256 180.207C202.631 179.543 202.818 178.784 202.818 177.932V166.545ZM223.198 172H221.085C220.96 171.392 220.741 170.858 220.428 170.398C220.121 169.938 219.746 169.551 219.303 169.239C218.866 168.92 218.38 168.682 217.846 168.523C217.312 168.364 216.755 168.284 216.175 168.284C215.119 168.284 214.161 168.551 213.303 169.085C212.451 169.619 211.772 170.406 211.266 171.446C210.766 172.486 210.516 173.761 210.516 175.273C210.516 176.784 210.766 178.06 211.266 179.099C211.772 180.139 212.451 180.926 213.303 181.46C214.161 181.994 215.119 182.261 216.175 182.261C216.755 182.261 217.312 182.182 217.846 182.023C218.38 181.864 218.866 181.628 219.303 181.315C219.746 180.997 220.121 180.608 220.428 180.148C220.741 179.682 220.96 179.148 221.085 178.545H223.198C223.039 179.437 222.749 180.236 222.329 180.94C221.908 181.645 221.386 182.244 220.761 182.739C220.136 183.227 219.434 183.599 218.656 183.855C217.883 184.111 217.056 184.239 216.175 184.239C214.687 184.239 213.363 183.875 212.204 183.148C211.045 182.42 210.133 181.386 209.468 180.045C208.803 178.705 208.471 177.114 208.471 175.273C208.471 173.432 208.803 171.841 209.468 170.5C210.133 169.159 211.045 168.125 212.204 167.398C213.363 166.67 214.687 166.307 216.175 166.307C217.056 166.307 217.883 166.435 218.656 166.69C219.434 166.946 220.136 167.321 220.761 167.815C221.386 168.304 221.908 168.901 222.329 169.605C222.749 170.304 223.039 171.102 223.198 172ZM228.727 166.545V184H226.614V166.545H228.727Z" fill="black"/>
</svg>
