<?xml version="1.0" standalone="no"?>
<!DOCTYPE svg PUBLIC "-//W3C//DTD SVG 20010904//EN"
 "http://www.w3.org/TR/2001/REC-SVG-20010904/DTD/svg10.dtd">
<svg version="1.0" xmlns="http://www.w3.org/2000/svg"
 width="1280.000000pt" height="1248.000000pt" viewBox="0 0 1280.000000 1248.000000"
 preserveAspectRatio="xMidYMid meet">
<g transform="translate(0.000000,1248.000000) scale(0.100000,-0.100000)"
fill="#000000" stroke="none">
<path d="M4730 12469 c-36 -5 -130 -18 -210 -29 -181 -26 -324 -60 -437 -103
-328 -127 -597 -340 -801 -635 -72 -104 -97 -147 -302 -522 -159 -292 -398
-717 -508 -905 -23 -38 -38 -73 -34 -76 4 -4 590 -368 1302 -809 712 -442
1305 -809 1317 -817 20 -14 23 -10 75 89 29 57 312 604 628 1217 316 612 581
1116 589 1119 7 3 17 -1 22 -9 5 -8 92 -162 195 -344 711 -1260 904 -1606 904
-1618 0 -7 -169 -100 -397 -217 -219 -112 -410 -211 -424 -221 -21 -15 -27
-30 -35 -84 -6 -36 -8 -68 -5 -70 5 -3 2430 -20 2846 -20 l160 0 60 80 c33 44
188 309 344 590 477 857 1113 1999 1119 2009 11 20 -33 -8 -361 -223 -186
-121 -342 -221 -346 -221 -5 0 -60 89 -122 198 -340 594 -614 1007 -801 1206
-193 206 -373 305 -658 363 -78 15 -242 17 -1915 23 -1335 5 -1845 10 -1885
19 -77 16 -242 22 -320 10z"/>
<path d="M2370 8185 c-14 -2 -416 -9 -895 -16 -478 -6 -989 -14 -1135 -18
l-265 -6 373 -189 c227 -116 372 -195 372 -204 0 -8 -60 -119 -134 -246 -321
-556 -528 -968 -606 -1211 -37 -115 -80 -328 -80 -395 0 -68 46 -279 84 -383
50 -138 121 -272 383 -727 132 -228 509 -881 838 -1450 331 -573 611 -1068
627 -1110 109 -282 430 -690 688 -874 192 -137 464 -249 710 -293 124 -21 420
-24 1322 -9 l556 9 6 91 c3 50 10 255 16 456 6 201 15 496 20 655 5 160 14
441 20 625 14 442 28 883 36 1103 5 146 4 177 -7 177 -8 0 -248 -11 -534 -25
-286 -13 -815 -38 -1175 -55 -360 -17 -738 -35 -840 -40 -102 -5 -189 -5 -193
-1 -5 5 85 165 198 357 114 192 374 631 578 977 205 345 377 627 384 627 6 0
180 -108 385 -241 205 -133 385 -247 399 -255 24 -12 33 -11 85 10 33 13 60
30 61 38 1 7 -329 595 -735 1307 -663 1164 -740 1296 -767 1304 -28 9 -719 19
-775 12z"/>
<path d="M10620 7437 c-608 -326 -1221 -655 -1362 -731 -237 -126 -257 -139
-247 -157 5 -11 338 -531 740 -1156 418 -651 727 -1143 724 -1151 -4 -12 -72
-13 -448 -7 -243 4 -751 10 -1129 14 -377 3 -690 10 -694 14 -5 4 2 220 15
480 l23 472 -43 38 c-24 21 -51 43 -59 47 -13 7 -150 -219 -771 -1277 -415
-707 -755 -1295 -757 -1307 -2 -12 15 -61 37 -109 22 -48 372 -642 778 -1319
658 -1099 738 -1229 741 -1199 2 19 -6 205 -18 413 -12 207 -19 382 -15 388 4
6 144 10 403 10 966 0 1380 60 1653 239 145 95 274 234 402 431 30 47 430 735
889 1530 541 935 860 1478 905 1538 39 51 96 139 126 195 84 154 198 445 232
590 23 101 55 323 55 386 0 86 -45 353 -80 474 -62 213 -112 312 -407 797
-186 306 -316 525 -507 853 -32 53 -63 97 -69 96 -7 0 -509 -267 -1117 -592z"/>
</g>
</svg>
